<svg width="75" height="61" viewBox="0 0 75 61" fill="none" xmlns="http://www.w3.org/2000/svg">
<path d="M0.380859 4V0.420898H0.866699L2.74658 3.23096V0.420898H3.20068V4H2.71484L0.834961 1.1875V4H0.380859ZM3.60596 4L4.98047 0.420898H5.49072L6.95557 4H6.41602L5.99854 2.91602H4.50195L4.10889 4H3.60596ZM4.63867 2.53027H5.85205L5.47852 1.53906C5.36458 1.23796 5.27995 0.99056 5.22461 0.796875C5.17904 1.02637 5.11475 1.25423 5.03174 1.48047L4.63867 2.53027ZM7.98584 4L6.59912 0.420898H7.11182L8.04199 3.021C8.11686 3.22933 8.17952 3.42464 8.22998 3.60693C8.28532 3.41162 8.34961 3.21631 8.42285 3.021L9.38965 0.420898H9.87305L8.47168 4H7.98584ZM11.3062 4V2.48389L9.92676 0.420898H10.5029L11.2085 1.5C11.3387 1.70182 11.46 1.90365 11.5723 2.10547C11.6797 1.91829 11.8099 1.70752 11.9629 1.47314L12.6562 0.420898H13.208L11.7798 2.48389V4H11.3062ZM14.27 4L15.6445 0.420898H16.1548L17.6196 4H17.0801L16.6626 2.91602H15.166L14.7729 4H14.27ZM15.3027 2.53027H16.5161L16.1426 1.53906C16.0286 1.23796 15.944 0.99056 15.8887 0.796875C15.8431 1.02637 15.7788 1.25423 15.6958 1.48047L15.3027 2.53027ZM17.998 4V0.420898H19.3481C19.5858 0.420898 19.7673 0.432292 19.8926 0.455078C20.0684 0.484375 20.2157 0.540527 20.3345 0.623535C20.4533 0.704915 20.5485 0.819661 20.6201 0.967773C20.6934 1.11589 20.73 1.27865 20.73 1.45605C20.73 1.76042 20.6331 2.01839 20.4395 2.22998C20.2458 2.43994 19.8958 2.54492 19.3896 2.54492H18.4717V4H17.998ZM18.4717 2.12256H19.397C19.703 2.12256 19.9202 2.06559 20.0488 1.95166C20.1774 1.83773 20.2417 1.67741 20.2417 1.4707C20.2417 1.32096 20.2035 1.1932 20.127 1.0874C20.0521 0.97998 19.9528 0.90918 19.8291 0.875C19.7493 0.853841 19.6021 0.843262 19.3872 0.843262H18.4717V2.12256ZM21.4136 4V0.420898H21.8872V4H21.4136Z" fill="white"/>
<circle cx="23.5" cy="9.5" r="2.25" fill="#101113" stroke="#232426" stroke-width="0.5"/>
<circle cx="2.5" cy="9.5" r="2.25" fill="#101113" stroke="#232426" stroke-width="0.5"/>
<circle cx="23.5" cy="16.5" r="2.25" fill="#101113" stroke="#232426" stroke-width="0.5"/>
<circle cx="2.5" cy="16.5" r="2.25" fill="#101113" stroke="#232426" stroke-width="0.5"/>
<circle cx="23.5" cy="23.5" r="2.25" fill="#101113" stroke="#232426" stroke-width="0.5"/>
<circle cx="23.5" cy="30.5" r="2.25" fill="#101113" stroke="#232426" stroke-width="0.5"/>
<circle cx="23.5" cy="44.5" r="2.25" fill="#101113" stroke="#232426" stroke-width="0.5"/>
<circle cx="23.5" cy="37.5" r="2.25" fill="#101113" stroke="#232426" stroke-width="0.5"/>
<circle cx="23.5" cy="51.5" r="2.25" fill="#101113" stroke="#232426" stroke-width="0.5"/>
<circle cx="23.5" cy="58.5" r="2.25" fill="#101113" stroke="#232426" stroke-width="0.5"/>
<circle cx="2.5" cy="23.5" r="2.25" fill="#101113" stroke="#232426" stroke-width="0.5"/>
<circle cx="2.5" cy="30.5" r="2.25" fill="#101113" stroke="#232426" stroke-width="0.5"/>
<circle cx="2.5" cy="44.5" r="2.25" fill="#101113" stroke="#232426" stroke-width="0.5"/>
<circle cx="2.5" cy="37.5" r="2.25" fill="#101113" stroke="#232426" stroke-width="0.5"/>
<circle cx="2.5" cy="51.5" r="2.25" fill="#101113" stroke="#232426" stroke-width="0.5"/>
<circle cx="2.5" cy="58.5" r="2.25" fill="#101113" stroke="#232426" stroke-width="0.5"/>
<circle cx="30.5" cy="2.5" r="2.25" fill="white" fill-opacity="0.25" stroke="white" stroke-width="0.5"/>
<circle cx="30.5" cy="9.5" r="2.25" fill="#101113" stroke="#232426" stroke-width="0.5"/>
<circle cx="9.5" cy="9.5" r="2.25" fill="#101113" stroke="#232426" stroke-width="0.5"/>
<circle cx="30.5" cy="16.5" r="2.25" fill="#101113" stroke="#232426" stroke-width="0.5"/>
<circle cx="9.5" cy="16.5" r="2.25" fill="#101113" stroke="#232426" stroke-width="0.5"/>
<circle cx="30.5" cy="23.5" r="2.25" fill="#101113" stroke="#232426" stroke-width="0.5"/>
<circle cx="30.5" cy="30.5" r="2.25" fill="#101113" stroke="#232426" stroke-width="0.5"/>
<circle cx="30.5" cy="44.5" r="2.25" fill="#101113" stroke="#232426" stroke-width="0.5"/>
<circle cx="30.5" cy="37.5" r="2.25" fill="#101113" stroke="#232426" stroke-width="0.5"/>
<circle cx="30.5" cy="51.5" r="2.25" fill="#101113" stroke="#232426" stroke-width="0.5"/>
<circle cx="30.5" cy="58.5" r="2.25" fill="#101113" stroke="#232426" stroke-width="0.5"/>
<circle cx="9.5" cy="23.5" r="2.25" fill="#101113" stroke="#232426" stroke-width="0.5"/>
<circle cx="9.5" cy="30.5" r="2.25" fill="#101113" stroke="#232426" stroke-width="0.5"/>
<circle cx="9.5" cy="44.5" r="2.25" fill="#101113" stroke="#232426" stroke-width="0.5"/>
<circle cx="9.5" cy="37.5" r="2.25" fill="#101113" stroke="#232426" stroke-width="0.5"/>
<circle cx="9.5" cy="51.5" r="2.25" fill="#101113" stroke="#232426" stroke-width="0.5"/>
<circle cx="9.5" cy="58.5" r="2.25" fill="#101113" stroke="#232426" stroke-width="0.5"/>
<circle cx="37.5" cy="2.5" r="2.25" fill="#101113" stroke="#232426" stroke-width="0.5"/>
<circle cx="37.5" cy="9.5" r="2.25" fill="#101113" stroke="#232426" stroke-width="0.5"/>
<circle cx="16.5" cy="9.5" r="2.25" fill="#101113" stroke="#232426" stroke-width="0.5"/>
<circle cx="37.5" cy="16.5" r="2.25" fill="#101113" stroke="#232426" stroke-width="0.5"/>
<circle cx="16.5" cy="16.5" r="2.25" fill="#101113" stroke="#232426" stroke-width="0.5"/>
<circle cx="37.5" cy="23.5" r="2.25" fill="#101113" stroke="#232426" stroke-width="0.5"/>
<circle cx="37.5" cy="30.5" r="2.25" fill="#101113" stroke="#232426" stroke-width="0.5"/>
<circle cx="37.5" cy="44.5" r="2.25" fill="#101113" stroke="#232426" stroke-width="0.5"/>
<circle cx="37.5" cy="37.5" r="2.25" fill="#101113" stroke="#232426" stroke-width="0.5"/>
<circle cx="37.5" cy="51.5" r="2.25" fill="#101113" stroke="#232426" stroke-width="0.5"/>
<circle cx="37.5" cy="58.5" r="2.25" fill="#101113" stroke="#232426" stroke-width="0.5"/>
<circle cx="16.5" cy="23.5" r="2.25" fill="#101113" stroke="#232426" stroke-width="0.5"/>
<circle cx="16.5" cy="30.5" r="2.25" fill="#101113" stroke="#232426" stroke-width="0.5"/>
<circle cx="16.5" cy="44.5" r="2.25" fill="#101113" stroke="#232426" stroke-width="0.5"/>
<circle cx="16.5" cy="37.5" r="2.25" fill="#101113" stroke="#232426" stroke-width="0.5"/>
<circle cx="16.5" cy="51.5" r="2.25" fill="#101113" stroke="#232426" stroke-width="0.5"/>
<circle cx="16.5" cy="58.5" r="2.25" fill="#101113" stroke="#232426" stroke-width="0.5"/>
<circle cx="44.5" cy="2.5" r="2.25" fill="#101113" stroke="#232426" stroke-width="0.5"/>
<circle cx="44.5" cy="9.5" r="2.25" fill="#101113" stroke="#232426" stroke-width="0.5"/>
<circle cx="44.5" cy="16.5" r="2.25" fill="#101113" stroke="#232426" stroke-width="0.5"/>
<circle cx="44.5" cy="23.5" r="2.25" fill="#101113" stroke="#232426" stroke-width="0.5"/>
<circle cx="44.5" cy="30.5" r="2.25" fill="#101113" stroke="#232426" stroke-width="0.5"/>
<circle cx="44.5" cy="44.5" r="2.25" fill="#101113" stroke="#232426" stroke-width="0.5"/>
<circle cx="44.5" cy="37.5" r="2.25" fill="#101113" stroke="#232426" stroke-width="0.5"/>
<circle cx="44.5" cy="51.5" r="2.25" fill="#101113" stroke="#232426" stroke-width="0.5"/>
<circle cx="44.5" cy="58.5" r="2.25" fill="#101113" stroke="#232426" stroke-width="0.5"/>
<circle cx="51.5" cy="2.5" r="2.25" fill="#101113" stroke="#232426" stroke-width="0.5"/>
<circle cx="65.5" cy="2.5" r="2.25" fill="#101113" stroke="#232426" stroke-width="0.5"/>
<circle cx="58.5" cy="2.5" r="2.25" fill="#101113" stroke="#232426" stroke-width="0.5"/>
<circle cx="72.5" cy="2.5" r="2.25" fill="#101113" stroke="#232426" stroke-width="0.5"/>
<circle cx="51.5" cy="9.5" r="2.25" fill="#101113" stroke="#232426" stroke-width="0.5"/>
<circle cx="65.5" cy="9.5" r="2.25" fill="#101113" stroke="#232426" stroke-width="0.5"/>
<circle cx="58.5" cy="9.5" r="2.25" fill="#101113" stroke="#232426" stroke-width="0.5"/>
<circle cx="72.5" cy="9.5" r="2.25" fill="#101113" stroke="#232426" stroke-width="0.5"/>
<circle cx="51.5" cy="16.5" r="2.25" fill="#101113" stroke="#232426" stroke-width="0.5"/>
<circle cx="65.5" cy="16.5" r="2.25" fill="#101113" stroke="#232426" stroke-width="0.5"/>
<circle cx="58.5" cy="16.5" r="2.25" fill="#101113" stroke="#232426" stroke-width="0.5"/>
<circle cx="72.5" cy="16.5" r="2.25" fill="#101113" stroke="#232426" stroke-width="0.5"/>
<circle cx="51.5" cy="23.5" r="2.25" fill="#101113" stroke="#232426" stroke-width="0.5"/>
<circle cx="65.5" cy="23.5" r="2.25" fill="#101113" stroke="#232426" stroke-width="0.5"/>
<circle cx="51.5" cy="30.5" r="2.25" fill="#101113" stroke="#232426" stroke-width="0.5"/>
<circle cx="51.5" cy="44.5" r="2.25" fill="#101113" stroke="#232426" stroke-width="0.5"/>
<circle cx="65.5" cy="30.5" r="2.25" fill="#101113" stroke="#232426" stroke-width="0.5"/>
<circle cx="65.5" cy="44.5" r="2.25" fill="#101113" stroke="#232426" stroke-width="0.5"/>
<circle cx="51.5" cy="37.5" r="2.25" fill="#101113" stroke="#232426" stroke-width="0.5"/>
<circle cx="51.5" cy="51.5" r="2.25" fill="#101113" stroke="#232426" stroke-width="0.5"/>
<circle cx="51.5" cy="58.5" r="2.25" fill="#101113" stroke="#232426" stroke-width="0.5"/>
<circle cx="65.5" cy="37.5" r="2.25" fill="#101113" stroke="#232426" stroke-width="0.5"/>
<circle cx="65.5" cy="51.5" r="2.25" fill="#101113" stroke="#232426" stroke-width="0.5"/>
<circle cx="65.5" cy="58.5" r="2.25" fill="#101113" stroke="#232426" stroke-width="0.5"/>
<circle cx="58.5" cy="23.5" r="2.25" fill="#101113" stroke="#232426" stroke-width="0.5"/>
<circle cx="72.5" cy="23.5" r="2.25" fill="#101113" stroke="#232426" stroke-width="0.5"/>
<circle cx="58.5" cy="30.5" r="2.25" fill="#101113" stroke="#232426" stroke-width="0.5"/>
<circle cx="58.5" cy="44.5" r="2.25" fill="#101113" stroke="#232426" stroke-width="0.5"/>
<circle cx="72.5" cy="30.5" r="2.25" fill="#101113" stroke="#232426" stroke-width="0.5"/>
<circle cx="72.5" cy="44.5" r="2.25" fill="#101113" stroke="#232426" stroke-width="0.5"/>
<circle cx="58.5" cy="37.5" r="2.25" fill="#101113" stroke="#232426" stroke-width="0.5"/>
<circle cx="58.5" cy="51.5" r="2.25" fill="#101113" stroke="#232426" stroke-width="0.5"/>
<circle cx="58.5" cy="58.5" r="2.25" fill="#101113" stroke="#232426" stroke-width="0.5"/>
<circle cx="72.5" cy="37.5" r="2.25" fill="#101113" stroke="#232426" stroke-width="0.5"/>
<circle cx="72.5" cy="51.5" r="2.25" fill="#101113" stroke="#232426" stroke-width="0.5"/>
<circle cx="72.5" cy="58.5" r="2.25" fill="#101113" stroke="#232426" stroke-width="0.5"/>
</svg>
