<svg width="334" height="64" viewBox="0 0 334 64" fill="none" xmlns="http://www.w3.org/2000/svg">
<path d="M6.47461 57V52.7051H9.58008V53.2119H7.04297V54.5273H9.41895V55.0312H7.04297V56.4932H9.67969V57H6.47461ZM10.699 57V52.7051H11.282L13.5379 56.0771V52.7051H14.0828V57H13.4998L11.2439 53.625V57H10.699ZM17.2905 55.3154V54.8115L19.1099 54.8086V56.4023C18.8306 56.625 18.5425 56.793 18.2456 56.9062C17.9487 57.0176 17.6441 57.0732 17.3316 57.0732C16.9097 57.0732 16.5259 56.9834 16.1802 56.8037C15.8364 56.6221 15.5767 56.3604 15.4009 56.0186C15.2251 55.6768 15.1372 55.2949 15.1372 54.873C15.1372 54.4551 15.2241 54.0654 15.398 53.7041C15.5737 53.3408 15.8257 53.0713 16.1538 52.8955C16.482 52.7197 16.8599 52.6318 17.2876 52.6318C17.5982 52.6318 17.8784 52.6826 18.1284 52.7842C18.3804 52.8838 18.5777 53.0234 18.7202 53.2031C18.8628 53.3828 18.9712 53.6172 19.0454 53.9062L18.5327 54.0469C18.4683 53.8281 18.3882 53.6562 18.2925 53.5312C18.1968 53.4062 18.0601 53.3066 17.8823 53.2324C17.7046 53.1562 17.5073 53.1182 17.2905 53.1182C17.0308 53.1182 16.8062 53.1582 16.6167 53.2383C16.4273 53.3164 16.2739 53.4199 16.1568 53.5488C16.0415 53.6777 15.9517 53.8193 15.8872 53.9736C15.7779 54.2393 15.7232 54.5273 15.7232 54.8379C15.7232 55.2207 15.7886 55.541 15.9195 55.7988C16.0523 56.0566 16.2446 56.248 16.4966 56.373C16.7486 56.498 17.0161 56.5605 17.2993 56.5605C17.5454 56.5605 17.7857 56.5137 18.02 56.4199C18.2544 56.3242 18.4321 56.2227 18.5532 56.1152V55.3154H17.2905ZM20.2874 57V52.7051H20.8557V57H20.2874ZM22.0948 57V52.7051H22.6778L24.9336 56.0771V52.7051H25.4786V57H24.8955L22.6397 53.625V57H22.0948ZM26.6883 57V52.7051H29.7938V53.2119H27.2566V54.5273H29.6326V55.0312H27.2566V56.4932H29.8934V57H26.6883Z" fill="white"/>
<rect x="0.5" y="0.5" width="63" height="63" fill="url(#paint0_linear_2212_387)" stroke="#2A2A2B"/>
<line x1="326" y1="9.5" x2="334" y2="9.5" stroke="#232323"/>
<line x1="326" y1="12.5" x2="334" y2="12.5" stroke="#232323"/>
<line x1="326" y1="15.5" x2="334" y2="15.5" stroke="#232323"/>
<line x1="326" y1="18.5" x2="334" y2="18.5" stroke="#232323"/>
<line x1="326" y1="21.5" x2="334" y2="21.5" stroke="#232323"/>
<line x1="326" y1="24.5" x2="334" y2="24.5" stroke="#232323"/>
<line x1="326" y1="27.5" x2="334" y2="27.5" stroke="#232323"/>
<line x1="326" y1="30.5" x2="334" y2="30.5" stroke="white"/>
<line x1="64" y1="33.5" x2="334" y2="33.5" stroke="#232323"/>
<line x1="64" y1="33.5" x2="195" y2="33.5" stroke="#232323"/>
<line x1="326" y1="36.5" x2="334" y2="36.5" stroke="#232323"/>
<line x1="326" y1="39.5" x2="334" y2="39.5" stroke="#232323"/>
<line x1="326" y1="42.5" x2="334" y2="42.5" stroke="#232323"/>
<line x1="326" y1="45.5" x2="334" y2="45.5" stroke="#232323"/>
<line x1="326" y1="48.5" x2="334" y2="48.5" stroke="#232323"/>
<line x1="326" y1="51.5" x2="334" y2="51.5" stroke="#232323"/>
<line x1="326" y1="54.5" x2="334" y2="54.5" stroke="#232323"/>
<rect x="179.25" y="26.25" width="31.5" height="15.5" rx="3.75" fill="#080808" stroke="#232323" stroke-width="0.5"/>
<path d="M197 28H207C208.105 28 209 28.8954 209 30V38C209 39.1046 208.105 40 207 40H197V28Z" fill="white"/>
<defs>
<linearGradient id="paint0_linear_2212_387" x1="32" y1="0" x2="32" y2="64" gradientUnits="userSpaceOnUse">
<stop stop-color="#FF5702" stop-opacity="0"/>
<stop offset="1" stop-color="#FF5702"/>
</linearGradient>
</defs>
</svg>
