<svg width="193" height="147" viewBox="0 0 193 147" fill="none" xmlns="http://www.w3.org/2000/svg">
<line x1="192.5" y1="147" x2="192.5" y2="-3.21279e-08" stroke="#232323"/>
<line x1="188.5" y1="147" x2="188.5" y2="-3.21279e-08" stroke="#232323"/>
<line x1="184.5" y1="147" x2="184.5" y2="-3.21279e-08" stroke="#232323"/>
<line x1="180.5" y1="147" x2="180.5" y2="-3.21279e-08" stroke="#232323"/>
<line x1="176.5" y1="147" x2="176.5" y2="-3.21279e-08" stroke="#232323"/>
<line x1="172.5" y1="147" x2="172.5" y2="-3.21279e-08" stroke="#232323"/>
<line x1="168.5" y1="147" x2="168.5" y2="-3.21279e-08" stroke="#232323"/>
<line x1="164.5" y1="147" x2="164.5" y2="-3.21279e-08" stroke="#232323"/>
<line x1="160.5" y1="147" x2="160.5" y2="-3.21279e-08" stroke="#232323"/>
<line x1="156.5" y1="147" x2="156.5" y2="-3.21279e-08" stroke="#232323"/>
<line x1="152.5" y1="147" x2="152.5" y2="-3.21279e-08" stroke="#232323"/>
<line x1="148.5" y1="147" x2="148.5" y2="-3.21279e-08" stroke="#232323"/>
<line x1="144.5" y1="147" x2="144.5" y2="-3.21279e-08" stroke="#232323"/>
<line x1="140.5" y1="147" x2="140.5" y2="-3.21279e-08" stroke="#232323"/>
<line x1="136.5" y1="147" x2="136.5" y2="-3.21279e-08" stroke="#232323"/>
<line x1="132.5" y1="147" x2="132.5" y2="-3.21279e-08" stroke="#232323"/>
<line x1="128.5" y1="147" x2="128.5" y2="-3.21279e-08" stroke="#232323"/>
<line x1="124.5" y1="147" x2="124.5" y2="-3.21279e-08" stroke="#232323"/>
<line x1="120.5" y1="147" x2="120.5" y2="-3.21279e-08" stroke="#232323"/>
<line x1="116.5" y1="147" x2="116.5" y2="-3.21279e-08" stroke="#232323"/>
<line x1="112.5" y1="147" x2="112.5" y2="-3.21279e-08" stroke="#232323"/>
<line x1="108.5" y1="147" x2="108.5" y2="-3.21279e-08" stroke="#232323"/>
<line x1="104.5" y1="147" x2="104.5" y2="-3.21279e-08" stroke="#232323"/>
<line x1="100.5" y1="147" x2="100.5" y2="-3.21279e-08" stroke="#232323"/>
<line x1="96.5" y1="147" x2="96.5" y2="-3.21279e-08" stroke="#232323"/>
<line x1="92.5" y1="147" x2="92.5" y2="-3.21279e-08" stroke="#232323"/>
<line x1="88.5" y1="147" x2="88.5" y2="-3.21279e-08" stroke="#232323"/>
<line x1="84.5" y1="147" x2="84.5" y2="-3.21279e-08" stroke="#232323"/>
<line x1="80.5" y1="147" x2="80.5" y2="-3.21279e-08" stroke="#232323"/>
<line x1="76.5" y1="147" x2="76.5" y2="-3.21279e-08" stroke="#232323"/>
<line x1="72.5" y1="147" x2="72.5" y2="-3.21279e-08" stroke="#232323"/>
<line x1="68.5" y1="147" x2="68.5" y2="-3.21279e-08" stroke="#232323"/>
<line x1="64.5" y1="147" x2="64.5" y2="-3.21279e-08" stroke="#232323"/>
<line x1="60.5" y1="147" x2="60.5" y2="-3.21279e-08" stroke="#232323"/>
<line x1="56.5" y1="147" x2="56.5" y2="-3.21279e-08" stroke="#232323"/>
<line x1="52.5" y1="147" x2="52.5" y2="-3.21279e-08" stroke="#232323"/>
<line x1="48.5" y1="147" x2="48.5" y2="-3.21279e-08" stroke="#232323"/>
<line x1="44.5" y1="147" x2="44.5" y2="-3.21279e-08" stroke="#232323"/>
<line x1="40.5" y1="147" x2="40.5" y2="-3.21279e-08" stroke="#232323"/>
<line x1="36.5" y1="147" x2="36.5" y2="-3.21279e-08" stroke="#232323"/>
<line x1="32.5" y1="147" x2="32.5" y2="-3.21279e-08" stroke="#232323"/>
<line x1="28.5" y1="147" x2="28.5" y2="-3.21279e-08" stroke="#232323"/>
<line x1="24.5" y1="147" x2="24.5" y2="-3.21279e-08" stroke="#232323"/>
<line x1="20.5" y1="147" x2="20.5" y2="-3.21279e-08" stroke="#232323"/>
<line x1="16.5" y1="147" x2="16.5" y2="-3.21279e-08" stroke="#232323"/>
<line x1="12.5" y1="147" x2="12.5" y2="-3.21279e-08" stroke="#232323"/>
<line x1="8.5" y1="147" x2="8.5" y2="-3.21279e-08" stroke="#232323"/>
<line x1="4.5" y1="147" x2="4.5" y2="-3.21279e-08" stroke="#232323"/>
<line x1="0.5" y1="147" x2="0.500004" y2="-3.21279e-08" stroke="#232323"/>
</svg>
