<svg width="22" height="13" viewBox="0 0 22 13" fill="none" xmlns="http://www.w3.org/2000/svg">
<path d="M16.9033 0.508476C16.665 0.893476 16.335 1.49848 15.8767 2.28681L15.0517 3.71681L14.9417 3.68014C14.19 3.38681 13.42 3.18514 12.6133 3.07514C12.0267 2.98348 11.4583 2.94681 10.89 2.94681C9.53333 2.96514 8.23167 3.20348 6.985 3.69848L5.13333 0.508476C5.09667 0.453476 5.06 0.380143 5.005 0.325143C4.84 0.160143 4.63833 0.0501432 4.41833 0.0134764C4.18 -0.0231905 3.94167 0.0134764 3.72167 0.141809C3.50167 0.270143 3.355 0.471809 3.28167 0.74681C3.20833 1.02181 3.245 1.27848 3.39167 1.51681L4.14333 2.83681C4.21667 2.96514 4.25333 3.02014 4.25333 2.98348C4.235 2.96514 4.27167 3.03848 4.345 3.16681L5.17 4.59681C5.17 4.61514 5.13333 4.63348 5.04167 4.68848C4.65667 4.94514 4.27167 5.22014 3.88667 5.53181C3.00667 6.28348 2.255 7.14514 1.63167 8.11681C0.733333 9.54681 0.183333 11.1235 0 12.8285H22C21.89 11.8568 21.67 10.9035 21.3217 10.0051C21.01 9.19848 20.6067 8.44681 20.1117 7.73181C19.7267 7.16348 19.2867 6.65014 18.81 6.17348C18.205 5.58681 17.5633 5.07348 16.8483 4.63348L18.645 1.51681C18.7367 1.35181 18.7917 1.18681 18.7917 1.00348C18.7917 0.820143 18.7367 0.655143 18.6633 0.508476C18.5717 0.36181 18.4433 0.251809 18.315 0.160143C18.1867 0.0684757 18.0217 0.0318098 17.8567 0.0134764C17.655 -0.00485706 17.435 0.0318098 17.2333 0.160143C17.0683 0.251809 16.9583 0.380143 16.9033 0.508476ZM16.8667 8.26348C17.05 8.53848 17.1233 8.81348 17.105 9.10681C17.0683 9.41848 16.94 9.63848 16.72 9.76681C16.5 9.91348 16.2433 9.95014 15.9683 9.85848C15.6933 9.76681 15.455 9.60181 15.2717 9.32681C15.0883 9.05181 15.015 8.77681 15.0517 8.46514C15.07 8.17181 15.1983 7.95181 15.4183 7.80514C15.6383 7.65848 15.895 7.62181 16.17 7.71348C16.445 7.80514 16.6833 7.98848 16.8667 8.26348ZM6.6 7.80514C6.82 7.95181 6.94833 8.17181 6.985 8.46514C7.00333 8.77681 6.93 9.05181 6.74667 9.32681C6.56333 9.60181 6.325 9.76681 6.05 9.85848C5.775 9.95014 5.51833 9.93181 5.29833 9.78514C5.07833 9.63848 4.95 9.41848 4.93167 9.10681C4.895 8.81348 4.96833 8.53848 5.15167 8.26348C5.335 7.98848 5.57333 7.80514 5.84833 7.71348C6.12333 7.62181 6.38 7.65848 6.6 7.80514Z" fill="white"/>
</svg>
