<svg width="17" height="20" viewBox="0 0 17 20" fill="none" xmlns="http://www.w3.org/2000/svg">
<path d="M8.28275 5.7496C8.13277 5.7496 7.93278 5.71627 7.69946 5.63294C7.56614 5.58294 7.34949 5.49962 7.03284 5.38296C6.6162 5.2163 6.28289 5.09965 6.04958 5.03298C5.66627 4.91632 5.29963 4.86633 4.98299 4.88299C4.13304 4.89966 3.3331 5.11631 2.59982 5.56628C1.86654 6.01625 1.28324 6.63287 0.849941 7.39948C0.299979 8.34942 0.0166655 9.49934 0 10.8159C0 11.9658 0.199986 13.1824 0.616624 14.4323C0.99993 15.5822 1.4999 16.5822 2.11652 17.4654C2.48316 17.9821 2.78314 18.3821 3.01646 18.6654C3.36643 19.0987 3.71641 19.4153 4.04972 19.632C4.44969 19.8819 4.84966 20.0153 5.2663 19.9986C5.53295 19.9819 5.7996 19.9486 6.04958 19.8653C6.19957 19.8153 6.41622 19.732 6.69953 19.6153C7.03284 19.4653 7.29949 19.3653 7.49948 19.3153C7.83279 19.232 8.18276 19.182 8.53274 19.182C8.88271 19.182 9.21602 19.232 9.53267 19.3153C9.71599 19.3653 9.96597 19.4486 10.2826 19.582C10.5993 19.7153 10.8326 19.8153 10.9992 19.8653C11.2659 19.9486 11.5492 19.9819 11.8492 19.9653C12.2658 19.9486 12.6824 19.832 13.0658 19.5986C13.3824 19.382 13.7157 19.082 14.049 18.682C14.2657 18.432 14.5656 18.0321 14.9156 17.5154C15.3156 16.9322 15.6656 16.2822 15.9489 15.5822C16.0989 15.2323 16.2155 14.9156 16.2989 14.6656C16.1989 14.6323 16.0489 14.5657 15.8656 14.449C15.5322 14.2657 15.2323 14.0324 14.949 13.7657C14.5656 13.3991 14.249 12.9824 14.0324 12.5325C13.749 11.9492 13.6157 11.3159 13.6157 10.6159C13.5991 9.86598 13.7824 9.16603 14.149 8.51607C14.399 8.04944 14.749 7.6328 15.1656 7.26616C15.3989 7.06617 15.5989 6.91619 15.7822 6.81619C15.2656 6.06625 14.5823 5.53295 13.7324 5.18297C13.2491 4.99965 12.6991 4.88299 12.1158 4.833C11.6659 4.79967 11.1826 4.84966 10.6659 4.98299C10.3659 5.06631 9.94931 5.19964 9.43268 5.41629C9.1327 5.53295 8.91604 5.59961 8.79939 5.64961C8.58273 5.71627 8.41608 5.7496 8.28275 5.7496ZM11.0826 3.19978L11.0992 3.18311C11.4659 2.74981 11.7325 2.26651 11.9158 1.71655C12.1158 1.13326 12.1825 0.566628 12.1325 0C11.6325 0.0166664 11.0992 0.166655 10.5659 0.449968C10.016 0.733282 9.54933 1.08326 9.19936 1.4999C8.83272 1.91653 8.5494 2.39983 8.34942 2.91646C8.13277 3.49976 8.04944 4.06638 8.13277 4.61635C8.66606 4.64968 9.21602 4.53302 9.76598 4.2497C10.2826 3.99972 10.7159 3.64975 11.0826 3.19978Z" fill="white"/>
</svg>
