<svg width="20" height="14" viewBox="0 0 20 14" fill="none" xmlns="http://www.w3.org/2000/svg">
<g clip-path="url(#clip0_364_482)">
<path d="M0 10.25C0 9.78333 0.216667 9.33333 0.666667 8.91667C1.1 8.5 1.71667 8.11667 2.5 7.76667V6.25C2.5 5.11667 2.83333 4.06667 3.51667 3.1C4.18333 2.15 5.08333 1.4 6.21667 0.849999C7.38333 0.283333 8.65 -9.53674e-07 10 -9.53674e-07C11.35 -9.53674e-07 12.6167 0.283333 13.7833 0.849999C14.9167 1.4 15.8167 2.15 16.4833 3.1C17.1667 4.06667 17.5 5.11667 17.5 6.25V7.76667C18.2833 8.11667 18.9 8.5 19.35 8.91667C19.7833 9.33333 20 9.78333 20 10.25C20 10.7667 19.75 11.25 19.2333 11.7C18.7167 12.15 17.9833 12.55 17.0667 12.9C16.15 13.25 15.0833 13.5167 13.9 13.7C12.65 13.9 11.35 14 10 14C8.65 14 7.35 13.9 6.1 13.7C4.91667 13.5167 3.85 13.25 2.93333 12.9C2.01667 12.55 1.3 12.15 0.783333 11.7C0.266667 11.25 0 10.7667 0 10.25Z" fill="white"/>
</g>
<defs>
<clipPath id="clip0_364_482">
<rect width="20" height="14" fill="white"/>
</clipPath>
</defs>
</svg>
