<svg width="20" height="20" viewBox="0 0 20 20" fill="none" xmlns="http://www.w3.org/2000/svg">
<g clip-path="url(#clip0_364_485)">
<path d="M10 -1.90735e-06C9.4 -1.90735e-06 8.8 0.0500832 8.21667 0.166945C6.65 0.45075 5.23333 1.05175 3.98333 2.00334C2.73333 2.92154 1.76667 4.07345 1.08333 5.4591C0.366667 6.87813 0 8.39733 0 10C0 10.9349 0.133333 11.8531 0.383333 12.7546L0.5 13.1386C0.95 14.4741 1.65 15.6594 2.6 16.7112C3.55 17.7462 4.65 18.5476 5.91667 19.1152C7.21667 19.6995 8.58333 20 10 20L10.4167 19.9833C10.7667 19.9666 11.1 19.8664 11.4 19.6494C11.6833 19.4491 11.9 19.182 12.0333 18.8481L17.0167 6.69449H15.5167L13.5833 11.6027L11.65 6.69449H10.05L12.7833 13.389L10.75 18.3139C10.7167 18.3973 10.6667 18.4641 10.6 18.5142C10.5167 18.5643 10.4333 18.5977 10.35 18.5977L10 18.6144C8.75 18.6144 7.53333 18.3472 6.38333 17.813C5.26667 17.2955 4.3 16.5609 3.48333 15.626C2.66667 14.6745 2.06667 13.5893 1.71667 12.3706C1.5 11.6027 1.38333 10.818 1.38333 10C1.38333 8.61436 1.7 7.29549 2.33333 6.0601C2.95 4.87479 3.78333 3.87312 4.86667 3.07178C5.96667 2.25376 7.2 1.73623 8.56667 1.5192C9.05 1.43572 9.51667 1.40234 10 1.40234C11.2167 1.40234 12.3667 1.63606 13.45 2.1035C14.5333 2.58764 15.4833 3.25542 16.3 4.10684C17.1 4.97496 17.7 5.97663 18.1 7.11185L18.2333 7.47913C18.4833 8.29716 18.6 9.14858 18.6 10C18.6 11.2521 18.35 12.4541 17.85 13.5559C17.3333 14.6745 16.6167 15.6427 15.7 16.4608C14.7833 17.2788 13.7167 17.8631 12.5167 18.2304L12.9167 19.5659C14.3167 19.1486 15.55 18.4474 16.6333 17.4958C17.7 16.5609 18.5167 15.4424 19.1 14.1569C19.7 12.8548 20 11.4691 20 10C20 8.88147 19.8167 7.81302 19.45 6.76127L19.35 6.44407C18.8667 5.1586 18.15 4.04007 17.2167 3.05509C16.2833 2.08681 15.2 1.33556 13.9667 0.801334C12.7167 0.267111 11.3833 -1.90735e-06 10 -1.90735e-06ZM7.03333 6.57763C6.05 6.57763 5.21667 6.89482 4.55 7.54591C3.86667 8.19699 3.53333 9.01502 3.53333 9.9833C3.53333 10.9683 3.86667 11.7863 4.53333 12.4374C5.2 13.0885 6.03333 13.4224 7.03333 13.4224C7.75 13.4224 8.38333 13.2387 8.95 12.8548C9.5 12.4875 9.91667 11.9866 10.1833 11.3356L10.2167 11.2688L8.85 10.818C8.73333 11.1018 8.56667 11.3523 8.33333 11.5693C7.98333 11.8865 7.55 12.0534 7.03333 12.0534C6.46667 12.0534 6 11.8531 5.61667 11.4691C5.23333 11.0851 5.05 10.5843 5.05 10C5.05 9.41569 5.23333 8.93155 5.61667 8.53088C6 8.13022 6.46667 7.92988 7.03333 7.92988C7.55 7.92988 7.98333 8.09683 8.33333 8.43072C8.55 8.64775 8.73333 8.89816 8.85 9.18197L10.2167 8.71452L10.1833 8.64775C9.91667 7.99666 9.5 7.49583 8.95 7.12855C8.38333 6.76127 7.75 6.57763 7.03333 6.57763Z" fill="white"/>
</g>
<defs>
<clipPath id="clip0_364_485">
<rect width="20" height="20" fill="white"/>
</clipPath>
</defs>
</svg>
