<svg width="24" height="17" viewBox="0 0 24 17" fill="none" xmlns="http://www.w3.org/2000/svg">
<g clip-path="url(#clip0_364_476)">
<path d="M13.9805 7.59281H16.1004C16.1604 7.59281 16.2004 7.57309 16.2404 7.53364C16.2604 7.4942 16.2804 7.45476 16.2804 7.41531V5.54176C16.2804 5.4826 16.2604 5.44316 16.2404 5.40371C16.2004 5.38399 16.1604 5.36427 16.1004 5.36427H13.9805C13.9205 5.36427 13.8805 5.38399 13.8605 5.40371C13.8205 5.44316 13.8005 5.4826 13.8005 5.54176V7.41531C13.8005 7.45476 13.8205 7.4942 13.8605 7.53364C13.8805 7.57309 13.9205 7.59281 13.9805 7.59281ZM11.0206 2.22854H13.1405C13.2005 2.22854 13.2405 2.20882 13.2805 2.16937C13.3205 2.14965 13.3405 2.11021 13.3405 2.05104V0.197216C13.3405 0.138052 13.3205 0.098608 13.2805 0.059166C13.2405 0.019722 13.2005 0 13.1405 0H11.0206C10.9806 0 10.9406 0.019722 10.9006 0.059166C10.8606 0.098608 10.8406 0.138052 10.8406 0.197216V2.05104C10.8406 2.11021 10.8606 2.14965 10.9006 2.16937C10.9406 2.20882 10.9806 2.22854 11.0206 2.22854ZM11.0206 4.91067H13.1405C13.2005 4.91067 13.2405 4.89095 13.2805 4.85151C13.3205 4.83179 13.3405 4.79234 13.3405 4.73318V2.85963C13.3405 2.82019 13.3205 2.78074 13.2805 2.7413C13.2405 2.70186 13.2005 2.68214 13.1405 2.68214H11.0206C10.9806 2.68214 10.9406 2.70186 10.9006 2.7413C10.8606 2.78074 10.8406 2.82019 10.8406 2.87935V4.73318C10.8406 4.79234 10.8606 4.83179 10.9006 4.85151C10.9406 4.89095 10.9806 4.91067 11.0206 4.91067ZM8.10077 4.91067H10.2207C10.2807 4.91067 10.3207 4.89095 10.3607 4.85151C10.3807 4.83179 10.4007 4.79234 10.4007 4.73318V2.85963C10.4007 2.82019 10.3807 2.78074 10.3607 2.7413C10.3207 2.70186 10.2807 2.68214 10.2207 2.68214H8.10077C8.04077 2.68214 8.00077 2.70186 7.98077 2.7413C7.94077 2.78074 7.92077 2.82019 7.92077 2.87935V4.73318C7.92077 4.79234 7.94077 4.83179 7.98077 4.85151C8.00077 4.89095 8.04077 4.91067 8.10077 4.91067ZM5.14091 4.91067H7.26081C7.3208 4.91067 7.3608 4.89095 7.4008 4.85151C7.4208 4.83179 7.4408 4.79234 7.4408 4.73318V2.85963C7.4408 2.82019 7.4208 2.78074 7.4008 2.7413C7.3608 2.70186 7.3208 2.68214 7.26081 2.68214H5.14091C5.08091 2.68214 5.04091 2.70186 5.02091 2.7413C4.98092 2.78074 4.96092 2.82019 4.96092 2.87935V4.73318C4.96092 4.79234 4.98092 4.83179 5.02091 4.85151C5.04091 4.89095 5.08091 4.91067 5.14091 4.91067ZM11.0206 7.59281H13.1405C13.2005 7.59281 13.2405 7.57309 13.2805 7.53364C13.3205 7.4942 13.3405 7.45476 13.3405 7.41531V5.54176C13.3405 5.4826 13.3205 5.44316 13.2805 5.40371C13.2405 5.38399 13.2005 5.36427 13.1405 5.36427H11.0206C10.9806 5.36427 10.9406 5.38399 10.9006 5.40371C10.8606 5.44316 10.8406 5.4826 10.8406 5.54176V7.41531C10.8406 7.45476 10.8606 7.4942 10.9006 7.53364C10.9406 7.57309 10.9806 7.59281 11.0206 7.59281ZM8.10077 7.59281H10.2207C10.2807 7.59281 10.3207 7.57309 10.3607 7.53364C10.3807 7.4942 10.4007 7.45476 10.4007 7.41531V5.54176C10.4007 5.4826 10.3807 5.44316 10.3607 5.40371C10.3207 5.38399 10.2807 5.36427 10.2207 5.36427H8.10077C8.04077 5.36427 8.00077 5.38399 7.98077 5.40371C7.94077 5.44316 7.92077 5.4826 7.92077 5.54176V7.41531C7.92077 7.45476 7.94077 7.4942 7.98077 7.53364C8.00077 7.57309 8.04077 7.59281 8.10077 7.59281ZM5.14091 7.59281H7.26081C7.3208 7.59281 7.3608 7.57309 7.4008 7.53364C7.4208 7.4942 7.4408 7.45476 7.4408 7.41531V5.54176C7.4408 5.4826 7.4208 5.44316 7.4008 5.40371C7.3608 5.38399 7.3208 5.36427 7.26081 5.36427H5.14091C5.08091 5.36427 5.04091 5.38399 5.02091 5.40371C4.98092 5.44316 4.96092 5.4826 4.96092 5.54176V7.41531C4.96092 7.45476 4.98092 7.4942 5.02091 7.53364C5.04091 7.57309 5.08091 7.59281 5.14091 7.59281ZM2.22105 7.59281H4.34095C4.40094 7.59281 4.44094 7.57309 4.48094 7.53364C4.50094 7.4942 4.52094 7.45476 4.52094 7.41531V5.54176C4.52094 5.4826 4.50094 5.44316 4.48094 5.40371C4.44094 5.38399 4.40094 5.36427 4.34095 5.36427H2.22105C2.16105 5.36427 2.12105 5.38399 2.10105 5.40371C2.06106 5.44316 2.04106 5.4826 2.04106 5.54176V7.41531C2.04106 7.45476 2.06106 7.4942 2.10105 7.53364C2.12105 7.57309 2.16105 7.59281 2.22105 7.59281ZM24 6.60673L23.76 6.40951C23.64 6.31091 23.46 6.23202 23.24 6.15313C22.8201 5.99536 22.3401 5.91647 21.8001 5.91647C21.4601 5.91647 21.1401 5.9362 20.8002 5.99536C20.7002 5.30511 20.3802 4.67401 19.8802 4.12181C19.6002 3.82599 19.3402 3.60905 19.0802 3.471L18.7403 3.27378L18.5203 3.58933C18.2203 4.0232 18.0203 4.49652 17.9003 5.00928C17.6803 5.97564 17.8003 6.86311 18.3003 7.63225C18.0403 7.7703 17.7003 7.88863 17.2803 7.96752C17.0003 8.00696 16.7603 8.02668 16.5604 8.0464H0.761118C0.541129 8.0464 0.361138 8.12529 0.221144 8.26334C0.0811511 8.40139 0.00115493 8.57889 0.00115493 8.7761C-0.0188441 10.1566 0.221144 11.4977 0.701121 12.7796C1.2411 14.1995 2.04106 15.2251 3.10101 15.8759C3.68098 16.2309 4.44094 16.507 5.3609 16.7042C6.28085 16.9014 7.2808 17 8.38075 17C9.3607 17 10.3407 16.9014 11.3006 16.7239C12.6605 16.4872 13.9405 16.0336 15.1404 15.3631C16.1204 14.7912 16.9803 14.1009 17.7403 13.2529C18.3203 12.6218 18.8202 11.8921 19.2802 11.0835C19.6202 10.4722 19.9602 9.74246 20.3002 8.91415H20.5202C21.1401 8.91415 21.7001 8.79582 22.2001 8.57889C22.5801 8.42111 22.9201 8.20418 23.22 7.90835C23.52 7.61253 23.74 7.27726 23.9 6.88283L24 6.60673Z" fill="white"/>
</g>
<defs>
<clipPath id="clip0_364_476">
<rect width="24" height="17" fill="white"/>
</clipPath>
</defs>
</svg>
