<svg width="22" height="18" viewBox="0 0 22 18" fill="none" xmlns="http://www.w3.org/2000/svg">
<path d="M11.1669 0.00191689H11.1852C9.88347 -0.0164185 8.63672 0.221931 7.46331 0.753633C6.30823 1.28534 5.31817 2.01872 4.49311 2.97212C3.64972 3.94385 3.06302 5.06226 2.71466 6.32734C2.733 6.30901 2.733 6.30901 2.71466 6.30901C2.69633 6.32734 2.69633 6.32734 2.71466 6.32734C1.85294 6.89571 1.17456 7.61076 0.697859 8.50915C0.239495 9.35254 0.0194805 10.2509 0.00114591 11.2227C-0.0171886 12.1944 0.184492 13.1295 0.606186 14.0095C1.02788 14.9446 1.65126 15.7146 2.47631 16.3563L2.49465 16.338L2.47631 16.3747C3.00801 16.778 3.61305 17.0897 4.25476 17.2914C4.89647 17.5114 5.53818 17.6214 6.21656 17.6214H10.9652L10.9835 17.6398H15.7505C16.9423 17.6581 18.0057 17.3831 18.9591 16.8147C19.8575 16.283 20.5725 15.568 21.1042 14.6696C21.6359 13.7895 21.9293 12.8361 21.9843 11.8094C22.0576 10.746 21.8743 9.7559 21.4342 8.82084C20.9759 7.81244 20.2425 6.98738 19.2708 6.32734C19.0508 5.52062 18.7207 4.75057 18.2807 4.03552C17.8407 3.32047 17.309 2.6971 16.6856 2.14706L16.6489 2.18373V2.14706C15.8972 1.46868 15.0355 0.955315 14.1004 0.588623C13.1654 0.221931 12.1753 0.0202522 11.1669 0.00191689ZM10.8552 3.79717C11.4236 3.77884 11.9919 3.87051 12.5603 4.05385C13.1104 4.2372 13.6054 4.51222 14.0454 4.86058C14.5955 5.31894 15.0172 5.88731 15.3288 6.52902C15.6222 7.18906 15.7689 7.88578 15.7505 8.60083V9.07753C16.3556 9.05919 16.8873 9.2242 17.309 9.55422C17.694 9.84758 17.9507 10.2326 18.079 10.7093C18.2074 11.2043 18.2074 11.681 18.079 12.1761C17.9507 12.6711 17.694 13.0561 17.309 13.3495C16.8873 13.6795 16.3556 13.8445 15.7505 13.8262H10.9835V13.8445V13.8078H6.21656C5.86821 13.8078 5.55652 13.7345 5.24483 13.5878C4.76813 13.3678 4.40144 13.0195 4.14476 12.5611C3.88807 12.1027 3.7964 11.6077 3.86974 11.076C3.94308 10.5626 4.16309 10.1226 4.54812 9.73757C4.91481 9.35254 5.35484 9.13253 5.88654 9.05919C6.41824 8.98585 6.91328 9.07753 7.37164 9.33421C7.83 9.59089 8.17836 9.95758 8.39837 10.4343L11.1486 7.6841C10.6902 7.07906 10.1585 6.58402 9.51678 6.18066C8.87507 5.79564 8.17836 5.52062 7.44498 5.37394C7.46331 5.35561 7.48165 5.35561 7.48165 5.35561C7.92168 4.87891 8.43504 4.51222 9.02175 4.2372C9.59012 3.96218 10.2135 3.81551 10.8552 3.79717Z" fill="white"/>
</svg>
