<svg width="16" height="20" viewBox="0 0 16 20" fill="none" xmlns="http://www.w3.org/2000/svg">
<g clip-path="url(#clip0_364_494)">
<path d="M8.11591 0.183332L7.93377 -1.90735e-06L7.75163 0.183332C6.87406 1.06667 6.01304 2.28333 5.16858 3.86666C4.39035 5.33333 3.67836 6.95 3.06571 8.73333C2.88358 8.91667 2.50274 9.25 1.93977 9.7C1.32712 10.2167 0.896616 10.5833 0.648246 10.8167C0.234296 11.2167 0.0190417 11.5 0.0024837 11.6833C-0.0140743 11.8667 0.0521577 12.0833 0.20118 12.3667C0.28397 12.5333 0.44955 12.8 0.69792 13.15C0.913174 13.4833 1.0622 13.7167 1.14499 13.8667C1.26089 14.1 1.31057 14.2667 1.27745 14.3833C1.22778 14.5333 1.09531 14.75 0.846942 15.05C0.664804 15.2833 0.548898 15.45 0.482666 15.55C0.399876 15.7333 0.383318 15.8833 0.44955 16C0.466108 16.05 0.548898 16.0667 0.681362 16.05C0.797268 16.0333 0.94629 16 1.09531 15.9167C1.24433 15.8333 1.3768 15.7333 1.4927 15.6C1.44303 16.1833 1.44303 16.7833 1.4927 17.3833C1.55894 18.1833 1.74107 18.8 2.02256 19.2333C2.17158 19.4833 2.37028 19.6667 2.61865 19.8C2.85046 19.9333 3.11539 20 3.39687 20C3.67836 20 3.95985 19.9333 4.24133 19.7833C4.32412 19.7333 4.44003 19.6667 4.60561 19.5667C4.77119 19.4833 4.90365 19.4167 5.003 19.3667C5.35072 19.1833 5.69844 19.0667 6.07927 18.9833C6.59257 18.8667 7.22177 18.8333 7.93377 18.85C8.64576 18.8833 9.25841 18.95 9.77171 19.0667C10.1525 19.15 10.5168 19.2833 10.8645 19.45L11.2288 19.6333C11.4772 19.75 11.6759 19.8333 11.8083 19.8833C12.0236 19.9667 12.2388 20 12.4541 20C12.7687 20 13.0667 19.9333 13.3151 19.8C13.5635 19.6667 13.7787 19.4833 13.9609 19.25C14.2755 18.8 14.4742 18.1833 14.557 17.3833C14.6066 16.8833 14.6066 16.3167 14.557 15.6667C14.6729 15.7833 14.8053 15.8667 14.9544 15.9333C15.1034 16.0167 15.2358 16.05 15.3518 16.0667C15.4677 16.0833 15.5339 16.0667 15.5505 16.0167C15.6167 15.9 15.6001 15.75 15.5173 15.5667C15.4511 15.45 15.3352 15.2833 15.1531 15.05C14.9047 14.75 14.7722 14.5333 14.7226 14.4C14.6894 14.2833 14.7391 14.1167 14.855 13.8833C14.9378 13.7333 15.0868 13.5 15.3021 13.1667C15.5505 12.8167 15.716 12.55 15.7988 12.3833C15.9478 12.1 16.0141 11.8667 15.9975 11.6833C15.981 11.5167 15.7657 11.2333 15.3518 10.8333C15.1034 10.6 14.6729 10.2333 14.0602 9.71667C13.4807 9.23333 13.0833 8.9 12.9012 8.71667C12.2554 6.95 11.5269 5.33333 10.7155 3.85C9.8545 2.28333 8.99348 1.06667 8.11591 0.183332ZM8.06623 5.03333H8.08279C8.5133 5.03333 8.91069 5.15 9.29152 5.36667C9.67236 5.58333 9.9704 5.88333 10.1857 6.25C10.4009 6.63333 10.5168 7.03333 10.5168 7.48333C10.5168 7.93333 10.4009 8.33333 10.1857 8.7C9.9704 9.08333 9.67236 9.38333 9.29152 9.6C8.91069 9.81667 8.5133 9.93333 8.08279 9.93333C7.63572 9.93333 7.23833 9.81667 6.8575 9.6C6.47666 9.38333 6.17862 9.08333 5.96337 8.7C5.74811 8.33333 5.63221 7.93333 5.64876 7.48333C5.64876 7.03333 5.76467 6.63333 5.97992 6.25C6.19518 5.88333 6.47666 5.58333 6.8575 5.36667C7.23833 5.15 7.63572 5.03333 8.06623 5.03333ZM5.25137 6.65C5.16858 6.93333 5.13547 7.2 5.13547 7.48333C5.13547 8.01667 5.26793 8.51667 5.53286 8.96667C5.79779 9.41667 6.16206 9.78333 6.60913 10.0333C7.05619 10.3 7.55293 10.4333 8.08279 10.4333C8.59609 10.4333 9.09283 10.3 9.5399 10.0333C9.98696 9.78333 10.3512 9.41667 10.6162 8.96667C10.8811 8.51667 11.0136 8.01667 11.0136 7.48333C11.0136 7.21667 10.9804 6.95 10.8977 6.68333C11.1791 6.76667 11.4275 6.86667 11.6593 6.96667C12.3382 8.55 12.9012 10.1667 13.3482 11.8333C13.6297 12.9167 13.845 13.9167 13.9609 14.85C14.0933 15.8167 14.1265 16.65 14.0602 17.35C13.9774 18.05 13.8119 18.5833 13.5469 18.95C13.4145 19.1333 13.2654 19.2833 13.0999 19.3667C12.9177 19.45 12.7025 19.5 12.4541 19.5C12.2885 19.5 12.1229 19.4667 11.9739 19.4C11.858 19.3667 11.6924 19.3 11.4772 19.1833L11.0798 18.9833C10.699 18.8167 10.3016 18.6833 9.88761 18.5833C9.32464 18.45 8.67888 18.3667 7.93377 18.35C7.18866 18.3333 6.5429 18.3833 5.97992 18.5C5.54942 18.5833 5.15202 18.7333 4.77119 18.9167C4.65528 18.9667 4.50626 19.05 4.32412 19.1667L4.02608 19.3333C3.81082 19.45 3.59557 19.5 3.38032 19.5C3.16506 19.5 2.99948 19.45 2.85046 19.3667C2.70144 19.2833 2.55242 19.15 2.43651 18.9667C2.18814 18.6 2.03912 18.0667 1.98944 17.35C1.93977 16.65 1.97289 15.8167 2.08879 14.85C2.2047 13.9167 2.38684 12.9167 2.66832 11.8333C3.08227 10.1833 3.62869 8.58333 4.27445 7C4.55593 6.86667 4.88709 6.75 5.25137 6.65ZM2.45307 10.2833C2.50274 10.2833 2.53586 10.3 2.56897 10.3167C2.41995 10.8333 2.28749 11.2833 2.17158 11.7C1.98944 12.4 1.84042 13.1167 1.72452 13.8333C1.67484 13.7167 1.62517 13.6167 1.55894 13.5C1.34368 13.1167 1.11187 12.6833 0.830384 12.1833L0.598572 11.7667C0.648246 11.7333 0.764152 11.6167 0.962848 11.4333C1.31057 11.1 1.55894 10.85 1.74107 10.7C2.07223 10.4333 2.30405 10.3 2.45307 10.2833ZM13.5469 10.3C13.696 10.3 13.9278 10.4333 14.2589 10.7167C14.4411 10.8667 14.6894 11.1 15.0372 11.45C15.2358 11.6333 15.3518 11.75 15.4014 11.7833L15.1696 12.1833C14.8881 12.7 14.6563 13.1333 14.4411 13.5167C14.3914 13.6 14.3417 13.6833 14.3086 13.7667C14.1761 13.0833 14.0271 12.3833 13.845 11.7C13.7125 11.2333 13.58 10.7667 13.431 10.3167C13.4641 10.3 13.4973 10.2833 13.5469 10.3Z" fill="white"/>
</g>
<defs>
<clipPath id="clip0_364_494">
<rect width="16" height="20" fill="white"/>
</clipPath>
</defs>
</svg>
