<svg width="20" height="20" viewBox="0 0 20 20" fill="none" xmlns="http://www.w3.org/2000/svg">
<g clip-path="url(#clip0_364_505)">
<path d="M7.35 7.71667L15.55 18.3167C14.7333 18.8667 13.8667 19.2667 12.95 19.55C12 19.85 11.0167 20 10 20C8.65 20 7.35 19.7333 6.11667 19.2167C4.91667 18.7 3.85 17.9833 2.93333 17.0667C2.01667 16.15 1.3 15.0833 0.783333 13.8833C0.266667 12.65 0 11.35 0 10C0 8.65 0.266667 7.35 0.783333 6.11667C1.3 4.91667 2.01667 3.85 2.93333 2.93333C3.85 2.01667 4.91667 1.3 6.11667 0.783333C7.35 0.266666 8.65 -1.90735e-06 10 -1.90735e-06C11.35 -1.90735e-06 12.65 0.266666 13.8833 0.783333C15.0833 1.3 16.15 2.01667 17.0667 2.93333C17.9833 3.85 18.7 4.91667 19.2167 6.11667C19.7333 7.35 20 8.65 20 10C20 11.4667 19.7 12.8667 19.0833 14.1833C18.5 15.4667 17.6667 16.5667 16.6167 17.5L7.68333 6H6V14H7.35V7.71667ZM12.7833 6V11.2L14.1167 12.9167V6H12.7833Z" fill="white"/>
</g>
<defs>
<clipPath id="clip0_364_505">
<rect width="20" height="20" fill="white"/>
</clipPath>
</defs>
</svg>
