<svg width="20" height="22" viewBox="0 0 20 22" fill="none" xmlns="http://www.w3.org/2000/svg">
<g clip-path="url(#clip0_364_491)">
<path d="M10 22C9.68045 22 9.3985 21.9267 9.13534 21.78L6.37218 20.185C6.20301 20.0933 6.10902 20.0017 6.12782 19.9467C6.14662 19.8917 6.20301 19.855 6.29699 19.8367C6.57895 19.745 6.80451 19.6533 6.93609 19.5983C7.06767 19.5433 7.25564 19.4333 7.53759 19.2683C7.59398 19.25 7.66917 19.25 7.74436 19.2867L9.86842 20.515C9.96241 20.57 10.0376 20.57 10.1316 20.515L18.3835 15.8583C18.4774 15.8217 18.515 15.7483 18.515 15.6567V6.34333C18.515 6.25167 18.4774 6.17833 18.3835 6.12333L10.1316 1.46667C10.0376 1.41167 9.96241 1.41167 9.86842 1.46667L1.61654 6.12333C1.52256 6.17833 1.48496 6.25167 1.48496 6.34333V15.6567C1.48496 15.7483 1.52256 15.8217 1.61654 15.8583L3.87218 17.1417C4.26692 17.325 4.62406 17.3983 4.94361 17.3433C5.22556 17.3067 5.45113 17.1967 5.6203 16.995C5.78947 16.7933 5.86466 16.5733 5.86466 16.3167V7.13167C5.86466 7.07667 5.88346 7.02167 5.93985 6.96667C5.97744 6.93 6.03383 6.91167 6.09023 6.91167H7.14286C7.19925 6.91167 7.25564 6.93 7.31203 6.96667C7.36842 7.02167 7.38722 7.07667 7.38722 7.13167V16.3167C7.38722 17.1233 7.18045 17.7467 6.74812 18.1867C6.31579 18.6267 5.71429 18.8467 4.94361 18.8467C4.64286 18.8467 4.3985 18.8283 4.19173 18.7733C3.89098 18.7183 3.49624 18.5717 3.02632 18.3333L0.864662 17.1233C0.601504 16.9583 0.394737 16.7567 0.244361 16.4817C0.075188 16.225 0 15.95 0 15.6567V6.34333C0 6.03167 0.075188 5.75667 0.244361 5.48167C0.394737 5.225 0.601504 5.02333 0.864662 4.87667L9.13534 0.220001C9.3985 0.0733337 9.68045 0 10 0C10.3195 0 10.6015 0.0733337 10.8647 0.220001L19.1353 4.87667C19.3985 5.02333 19.6053 5.225 19.7744 5.48167C19.9248 5.75667 20 6.03167 20 6.34333V15.6567C20 15.95 19.9248 16.225 19.7744 16.4817C19.6053 16.7567 19.3985 16.9583 19.1353 17.1233L10.8647 21.78C10.6015 21.9267 10.3195 22 10 22ZM16.6729 12.8333C16.6729 12.265 16.5414 11.8067 16.2782 11.4767C16.015 11.1467 15.6015 10.89 15.0188 10.7067C14.5489 10.5417 13.8534 10.4133 12.9323 10.3033C12.0489 10.175 11.4286 10.0833 11.0338 9.99167C10.6391 9.9 10.3947 9.80833 10.2632 9.68C10.1504 9.57 10.094 9.405 10.094 9.20333C10.094 8.89167 10.2068 8.635 10.4511 8.45167C10.7895 8.21333 11.3722 8.085 12.218 8.085C12.8008 8.06667 13.2519 8.10333 13.609 8.195C13.9474 8.28667 14.2105 8.45167 14.3985 8.65333C14.5677 8.87333 14.6992 9.16667 14.7932 9.55167C14.812 9.60667 14.8308 9.64333 14.8872 9.68C14.9248 9.71667 14.9812 9.735 15.0376 9.735H16.109C16.1654 9.735 16.2218 9.69833 16.2782 9.64333C16.3346 9.58833 16.3534 9.53333 16.3346 9.47833C16.2594 8.50667 15.8835 7.79167 15.2256 7.33333C14.5489 6.875 13.5526 6.655 12.218 6.655C11.0338 6.655 10.1128 6.875 9.45489 7.33333C8.79699 7.79167 8.45865 8.43333 8.45865 9.25833C8.45865 9.82667 8.60902 10.285 8.90977 10.6333C9.17293 10.945 9.58647 11.2017 10.1692 11.385C10.6391 11.5317 11.297 11.6417 12.1241 11.7333C12.9699 11.8067 13.6278 11.8983 14.0789 12.0267C14.4737 12.1367 14.7368 12.265 14.8872 12.4117C14.9812 12.5217 15.0376 12.6867 15.0376 12.8883C15.0376 13.3467 14.8496 13.6767 14.4549 13.86C14.0602 14.0617 13.4211 14.1717 12.5564 14.1717C11.8421 14.1717 11.297 14.1167 10.9023 13.9883C10.5075 13.8783 10.2256 13.695 10.0376 13.4567C9.88722 13.255 9.77444 12.9617 9.71804 12.5767C9.69925 12.5217 9.68045 12.4667 9.64286 12.43C9.58647 12.3933 9.53008 12.375 9.47368 12.375H8.42105C8.34586 12.375 8.28947 12.3933 8.25188 12.4483C8.19549 12.5033 8.17669 12.5583 8.17669 12.6133C8.17669 13.4383 8.45865 14.1167 9.00376 14.6117C9.73684 15.2533 10.9211 15.5833 12.5564 15.5833C13.8534 15.5833 14.8684 15.345 15.6015 14.8683C16.3158 14.3917 16.6729 13.7133 16.6729 12.8333Z" fill="white"/>
</g>
<defs>
<clipPath id="clip0_364_491">
<rect width="20" height="22" fill="white"/>
</clipPath>
</defs>
</svg>
