<svg width="20" height="18" viewBox="0 0 20 18" fill="none" xmlns="http://www.w3.org/2000/svg">
<g clip-path="url(#clip0_364_499)">
<path d="M15.6833 7.53918L10.9667 12.0896C10.7 12.3414 10.3833 12.4757 10.0167 12.4757C9.65 12.4757 9.33333 12.3414 9.06667 12.0896L4.36667 7.53918C4.08333 7.27052 3.95 6.95149 3.95 6.5653C3.93333 6.1791 4.06667 5.86007 4.33333 5.57463C4.58333 5.30597 4.9 5.17164 5.28333 5.15485C5.66667 5.15485 5.98333 5.28918 6.26667 5.54104L10.0167 9.16791L13.7833 5.54104C14.0667 5.28918 14.3833 5.15485 14.7667 5.15485C15.15 5.17164 15.4667 5.30597 15.7333 5.57463C15.9833 5.86007 16.1167 6.1791 16.1167 6.5653C16.1 6.95149 15.9667 7.27052 15.6833 7.53918ZM19.9 1.19216L19.9167 1.20895C19.8 0.856342 19.5833 0.554104 19.2667 0.335819C18.95 0.117537 18.6 0 18.2167 0H1.81667C1.43333 0 1.1 0.100746 0.783333 0.319029C0.466667 0.537312 0.25 0.82276 0.116667 1.17537C0.0333333 1.39366 0 1.61194 0 1.83022V7.90858L0.0666667 9.11754C0.216667 10.4776 0.616667 11.7537 1.3 12.9291C1.98333 14.1045 2.86667 15.1119 3.96667 15.9515L4.11667 16.0522C5.3 16.9254 6.6 17.5131 8.03333 17.7985C8.68333 17.9328 9.35 18 10.0167 18C10.6333 18 11.25 17.9496 11.8667 17.8321C11.9167 17.8153 11.9833 17.7985 12.0833 17.7817C12.1 17.7817 12.1167 17.7649 12.1333 17.7481C13.5167 17.4459 14.7667 16.875 15.9 16.0522L16.0333 15.9347C17.1333 15.0951 18.0167 14.0877 18.7 12.9123C19.3833 11.7369 19.7833 10.4608 19.9333 9.10075L20 7.89179V1.81343C20 1.57836 19.9667 1.37687 19.9 1.19216Z" fill="white"/>
</g>
<defs>
<clipPath id="clip0_364_499">
<rect width="20" height="18" fill="white"/>
</clipPath>
</defs>
</svg>
