<svg width="22" height="22" viewBox="0 0 22 22" fill="none" xmlns="http://www.w3.org/2000/svg">
<g clip-path="url(#clip0_364_502)">
<path d="M12.0763 0.0366669L13.0614 0.165001L13.8823 0.348333L14.539 0.586668L15.0862 0.861668L15.4876 1.155L15.7977 1.46667L16.0348 1.77833L16.1808 2.07167L16.272 2.34667L16.3085 2.585L16.3267 2.76833L16.3085 2.89667V7.79167L16.272 8.36L16.1443 8.87333L15.9619 9.295L15.7247 9.64333L15.4511 9.91833L15.141 10.1567L14.8308 10.3217L14.5025 10.45L14.2106 10.5417L13.937 10.615L13.6998 10.6517L13.4992 10.67H8.06302L7.42454 10.7067L6.89552 10.835L6.43947 11.0367L6.05638 11.2933L5.76451 11.5867L5.50912 11.8983L5.3267 12.2283L5.19901 12.5767L5.10779 12.8883L5.03483 13.1817L4.99834 13.4383L4.9801 13.6217V16.4267H2.95522L2.75456 16.4083L2.49917 16.335L2.2073 16.225L1.89718 16.06L1.56882 15.8217L1.24046 15.4917L0.912106 15.07L0.620232 14.5383L0.364842 13.86L0.182421 13.0533L0.0547264 12.1L0 10.9633L0.0547264 9.845L0.200663 8.89167L0.419569 8.10333L0.711443 7.44333L1.0398 6.93L1.40464 6.52667L1.78773 6.215L2.17081 5.995L2.53566 5.84833L2.86401 5.75667L3.15589 5.72L3.52073 5.70167L3.57546 5.72H11.0182V4.95H5.69154V2.43833L5.6733 2.09L5.70978 1.77833L5.81924 1.50333L5.96517 1.24667L6.20232 1.00833L6.47595 0.788334L6.82255 0.605001L7.22388 0.440001L7.69818 0.311668L8.2272 0.201668L8.81095 0.110001L9.44942 0.0550003L10.1609 0.0183334L10.927 0L12.0763 0.0366669ZM7.60697 1.77833L7.31509 1.98L7.09619 2.27333L7.02322 2.65833L7.09619 3.025L7.31509 3.33667L7.60697 3.53833L7.99005 3.63L8.35489 3.53833L8.66501 3.33667L8.86567 3.025L8.93864 2.65833L8.86567 2.27333L8.66501 1.98L8.35489 1.77833L7.99005 1.68667L7.60697 1.77833ZM19.063 5.57333L19.2454 5.59167L19.5008 5.64667L19.7927 5.75667L20.1211 5.92167L20.4494 6.17833L20.7778 6.49L21.0879 6.93L21.3798 7.46167L21.6352 8.14L21.8358 8.94667L21.9635 9.9L22 11.0183L21.9453 12.155L21.7993 13.1083L21.5804 13.8967L21.2886 14.5383L20.9602 15.07L20.5954 15.4733L20.2123 15.785L19.8292 16.005L19.4643 16.1517L19.136 16.225L18.8441 16.28L18.6252 16.2983L18.4793 16.28H10.9818V17.0317H16.3085L16.3267 19.5617L16.3449 19.8917L16.2902 20.2033L16.199 20.4967L16.0348 20.7533L15.8159 20.9917L15.524 21.2117L15.1774 21.395L14.7761 21.5417L14.3201 21.6883L13.791 21.7983L13.2073 21.89L12.5506 21.945L11.8574 21.9817L11.0912 22L9.92371 21.9633L8.95688 21.835L8.13599 21.6517L7.46103 21.4133L6.93201 21.1383L6.51244 20.845L6.20232 20.5333L5.98342 20.2217L5.83748 19.91L5.74627 19.635L5.70978 19.415L5.69154 19.2317V19.1033V14.2083L5.74627 13.6217L5.85572 13.1267L6.05638 12.705L6.29353 12.3567L6.56716 12.0633L6.85904 11.8433L7.1874 11.66L7.49751 11.5317L7.80763 11.44L8.08126 11.385L8.31841 11.3483L8.62852 11.33H13.9552L14.5755 11.275L15.1227 11.1467L15.5788 10.9633L15.9436 10.7067L16.2537 10.4133L16.4909 10.0833L16.6733 9.75333L16.8192 9.42333L16.9104 9.11167L16.9652 8.81833L17.0199 8.36V5.555H18.9353L19.063 5.57333ZM13.6451 18.4433L13.3532 18.6633L13.1343 18.9567L13.0614 19.3417L13.1343 19.7083L13.3532 20.02L13.6451 20.2217L14.0282 20.295L14.393 20.2217L14.7032 20.02L14.9038 19.7083L14.9768 19.3417L14.9038 18.9567L14.7032 18.6633L14.393 18.4433L14.0282 18.37L13.6451 18.4433Z" fill="white"/>
</g>
<defs>
<clipPath id="clip0_364_502">
<rect width="22" height="22" fill="white"/>
</clipPath>
</defs>
</svg>
