<svg width="22" height="20" viewBox="0 0 22 20" fill="none" xmlns="http://www.w3.org/2000/svg">
<g clip-path="url(#clip0_364_488)">
<path d="M13.0533 10C13.0533 10.3933 12.9617 10.7303 12.7783 11.0487C12.5767 11.367 12.3383 11.6292 12.0267 11.8165C11.715 12.0037 11.3667 12.0974 11 12.0974C10.725 12.0974 10.4683 12.0412 10.2117 11.9288C9.955 11.8352 9.735 11.6854 9.55167 11.4794C9.35 11.2921 9.20333 11.0674 9.11167 10.8052C9.00167 10.5431 8.94667 10.2809 8.94667 10C8.94667 9.62547 9.03833 9.26966 9.22167 8.95131C9.405 8.63296 9.66167 8.37079 9.97333 8.18352C10.285 7.99625 10.615 7.90262 11 7.90262C11.3667 7.90262 11.715 7.99625 12.0267 8.18352C12.3383 8.37079 12.5767 8.63296 12.7783 8.95131C12.9617 9.26966 13.0533 9.62547 13.0533 10ZM15.4733 0C14.8683 0 14.1717 0.205994 13.4017 0.636705C12.6133 1.06742 11.8067 1.66667 10.9817 2.45318C10.1567 1.68539 9.36833 1.08614 8.59833 0.655432C7.81 0.22472 7.11333 0.0187283 6.50833 0.0187283C6.12333 0.0187283 5.79333 0.11236 5.5 0.280899C4.87667 0.636705 4.49167 1.34832 4.345 2.41573C4.18 3.48315 4.27167 4.75655 4.60167 6.23596C3.19 6.68539 2.07167 7.24719 1.24667 7.90262C0.421667 8.57678 0 9.26966 0 10C0 10.7303 0.421667 11.4419 1.24667 12.0974C2.07167 12.7715 3.20833 13.3333 4.62 13.7828C4.29 15.2622 4.19833 16.5169 4.36333 17.5843C4.52833 18.6517 4.91333 19.382 5.53667 19.7566C5.81167 19.9251 6.16 20 6.545 20C7.15 20 7.84667 19.794 8.635 19.3633C9.405 18.9326 10.1933 18.3333 11.0183 17.5468C11.8433 18.3333 12.6317 18.9326 13.42 19.3446C14.19 19.7753 14.8867 19.9813 15.4917 19.9813C15.8767 19.9813 16.225 19.9064 16.5183 19.7378C17.1417 19.3633 17.5267 18.633 17.6733 17.5655C17.82 16.4981 17.7283 15.2434 17.3983 13.764C18.81 13.3333 19.9467 12.7715 20.7717 12.0974C21.5967 11.4419 22 10.7303 22 10C22 9.26966 21.5783 8.55805 20.7533 7.8839C19.9283 7.22847 18.7917 6.66667 17.38 6.23596C17.71 4.75655 17.8017 3.48315 17.6367 2.39701C17.4717 1.32959 17.0867 0.617979 16.4633 0.262173C16.1883 0.0936337 15.8583 0 15.4733 0ZM15.4733 1.01124C15.675 1.01124 15.84 1.04869 15.9867 1.14232C16.2983 1.31086 16.5 1.72285 16.6283 2.34082C16.7383 2.97753 16.7383 3.72659 16.6467 4.60674C16.5917 5 16.5183 5.44944 16.4267 5.95506C15.5283 5.73034 14.575 5.5618 13.5667 5.44944C12.9617 4.60674 12.3383 3.85768 11.6967 3.16479C12.43 2.47191 13.1267 1.94757 13.7867 1.57303C14.4283 1.1985 14.9967 1.01124 15.4733 1.01124ZM6.50833 1.02996C6.985 1.02996 7.55333 1.21723 8.21333 1.59176C8.855 1.96629 9.55167 2.49064 10.285 3.16479C9.625 3.87641 9.00167 4.6442 8.43333 5.44944C7.40667 5.5618 6.45333 5.73034 5.57333 5.95506C5.48167 5.52435 5.39 5.07491 5.335 4.62547C5.24333 3.74532 5.24333 2.99626 5.37167 2.35955C5.48167 1.74157 5.68333 1.32959 5.995 1.16105C6.16 1.08614 6.325 1.04869 6.50833 1.02996ZM10.9817 3.89513C11.4033 4.32584 11.8067 4.81273 12.2283 5.35581C11.77 5.33708 11.3667 5.31835 11 5.31835C10.56 5.31835 10.1383 5.33708 9.75333 5.35581C10.1383 4.85019 10.56 4.3633 10.9817 3.89513ZM11 6.34832C11.6417 6.34832 12.32 6.38577 13.0167 6.44195C13.4017 6.98502 13.75 7.56554 14.0983 8.18352C14.4283 8.76405 14.74 9.3633 15.0333 10C14.74 10.6367 14.4283 11.236 14.1167 11.8165C13.75 12.4719 13.3833 13.0524 13.0167 13.5768C12.3383 13.633 11.66 13.6704 11.0183 13.6704C10.3767 13.6704 9.69833 13.633 8.98333 13.5768C8.59833 13.0337 8.25 12.4532 7.90167 11.8352C7.57167 11.2547 7.26 10.6554 6.96667 10.0187C7.24167 9.41948 7.55333 8.8015 7.90167 8.16479C8.25 7.54682 8.61667 6.96629 8.965 6.44195C9.64333 6.38577 10.3217 6.34832 11 6.34832ZM7.66333 6.59176C7.38833 7.02247 7.18667 7.37828 7.02167 7.6779C6.82 8.01498 6.63667 8.37079 6.435 8.76405C6.19667 8.16479 5.995 7.56554 5.83 6.94757C6.45333 6.79775 7.05833 6.68539 7.66333 6.59176ZM14.3183 6.59176C14.9783 6.68539 15.6017 6.81648 16.17 6.94757C16.005 7.50936 15.8033 8.10861 15.565 8.76405C15.345 8.33333 15.1433 7.97753 14.9783 7.65918C14.8133 7.35955 14.5933 7.00375 14.3183 6.59176ZM17.1233 7.20974C17.5633 7.35955 17.985 7.50936 18.3883 7.6779C19.1767 8.03371 19.8183 8.40824 20.295 8.82022C20.7717 9.25094 21.01 9.6442 21.01 10C21.01 10.3558 20.7717 10.7491 20.295 11.161C19.8183 11.5918 19.1767 11.9663 18.3883 12.3221C18.04 12.4719 17.6367 12.6217 17.1417 12.7903C16.885 11.8727 16.555 10.9363 16.1333 10C16.5367 9.06367 16.8667 8.12734 17.1233 7.20974ZM4.85833 7.22847C5.115 8.12734 5.445 9.06367 5.86667 10.0187C5.445 10.9551 5.115 11.8727 4.85833 12.7903C4.41833 12.6592 3.99667 12.4906 3.61167 12.3221C2.82333 11.9663 2.18167 11.5918 1.705 11.161C1.22833 10.7491 0.99 10.3558 0.99 10C0.99 9.6442 1.22833 9.25094 1.705 8.82022C2.18167 8.40824 2.82333 8.03371 3.61167 7.6779C3.96 7.52809 4.36333 7.37828 4.85833 7.22847ZM15.565 11.236C15.8033 11.8352 16.005 12.4345 16.17 13.0524C15.565 13.2022 14.96 13.3333 14.3367 13.427C14.5933 13.015 14.8133 12.6592 14.9783 12.3408C15.1433 12.0412 15.345 11.6667 15.565 11.236ZM6.435 11.2547C6.63667 11.6479 6.83833 12.0225 7.02167 12.3408C7.24167 12.7154 7.46167 13.0712 7.68167 13.427C7.04 13.3333 6.41667 13.2022 5.83 13.0524C5.995 12.4906 6.19667 11.8914 6.435 11.2547ZM16.4267 14.0449C16.5367 14.5318 16.61 14.9813 16.665 15.3745C16.7567 16.2547 16.7567 17.0037 16.6467 17.6217C16.5183 18.2584 16.3167 18.6704 16.005 18.8577C15.8767 18.9326 15.7117 18.97 15.4917 18.97C15.015 18.97 14.4467 18.7828 13.805 18.4082C13.145 18.0524 12.4483 17.5281 11.715 16.8352C12.375 16.1236 12.9983 15.3558 13.5667 14.5506C14.5933 14.4382 15.5467 14.2697 16.4267 14.0449ZM5.57333 14.0637L5.59167 14.0449C6.49 14.2697 7.425 14.4382 8.43333 14.5506C9.03833 15.3933 9.66167 16.161 10.3033 16.8352C9.57 17.5281 8.87333 18.0524 8.23167 18.427C7.57167 18.8015 7.00333 18.9888 6.52667 18.9888C6.325 18.9888 6.16 18.9513 6.01333 18.8764C5.70167 18.6891 5.5 18.2772 5.39 17.6404C5.26167 17.0225 5.26167 16.2734 5.35333 15.3933C5.40833 15 5.48167 14.5693 5.57333 14.0637ZM9.77167 14.6629V14.6442C10.23 14.6629 10.6333 14.6816 11 14.6816C11.44 14.6816 11.8617 14.6629 12.2467 14.6442C11.8617 15.1498 11.44 15.6554 11.0183 16.1236C10.5967 15.6742 10.175 15.1873 9.77167 14.6629Z" fill="white"/>
</g>
<defs>
<clipPath id="clip0_364_488">
<rect width="22" height="20" fill="white"/>
</clipPath>
</defs>
</svg>
