<svg width="24" height="24" viewBox="0 0 24 24" fill="none" xmlns="http://www.w3.org/2000/svg">
<path d="M12.0273 0H11.9727C5.36035 0 0 5.36035 0 11.9727V12.0273C0 18.6397 5.36035 24 11.9727 24H12.0273C18.6397 24 24 18.6397 24 12.0273V11.9727C24 5.36035 18.6397 0 12.0273 0Z" fill="#EA4C89"/>
<path d="M19.5294 12.3135C19.531 12.2874 19.5319 12.2605 19.5327 12.2336L19.547 11.8998L19.5344 11.8965C19.51 10.1324 18.8811 8.4608 17.7468 7.12555L17.7602 7.11125L17.4029 6.74381C15.9693 5.2715 14.0496 4.46094 11.9963 4.46094C10.9419 4.46094 9.92784 4.67367 8.97517 5.09157L8.9676 5.08568L8.65818 5.23871C8.24869 5.44135 7.86191 5.67847 7.50119 5.94669C7.26071 6.12579 7.032 6.3175 6.81506 6.52267C6.73434 6.59918 6.65615 6.67738 6.57879 6.75726C5.51849 7.85287 4.79873 9.25791 4.55069 10.795L4.47081 11.2927L4.48847 11.2969C4.46661 11.5307 4.45483 11.767 4.45483 12.0024C4.45483 14.0011 5.25195 15.9173 6.6553 17.3257L6.64942 17.3367L6.96389 17.6184C8.34875 18.8594 10.1355 19.5439 11.9955 19.5439C12.1275 19.5439 12.2586 19.5405 12.389 19.5338C13.3038 19.4875 14.1892 19.2773 15.025 18.9099C15.025 18.9099 15.0258 18.9099 15.0267 18.9099L15.3538 18.7661V18.756C17.788 17.541 19.4133 15.058 19.5285 12.3345C19.5285 12.3337 19.5285 12.3329 19.5285 12.332C19.5285 12.3312 19.5285 12.3295 19.5285 12.3286V12.3169L19.5294 12.3135ZM18.4245 12.7255C18.4211 12.7524 18.4178 12.7793 18.4144 12.8062C18.4085 12.8525 18.4026 12.8987 18.3959 12.9441C18.3917 12.9736 18.3867 13.003 18.3816 13.0324C18.3749 13.0753 18.3673 13.1182 18.3598 13.1611C18.3539 13.1922 18.348 13.2225 18.3413 13.2536C18.3328 13.2948 18.3253 13.336 18.316 13.3763C18.3093 13.4074 18.3017 13.4385 18.2942 13.4697C18.2849 13.51 18.2748 13.5495 18.2647 13.5891C18.2563 13.6202 18.2479 13.6521 18.2395 13.6832C18.2286 13.7219 18.2177 13.7614 18.2067 13.8001C18.1975 13.8312 18.1882 13.8632 18.1781 13.8943C18.1664 13.933 18.1537 13.9708 18.142 14.0095C18.1319 14.0406 18.121 14.0717 18.11 14.1028C18.0966 14.1407 18.0831 14.1785 18.0697 14.2163C18.0587 14.2466 18.047 14.2777 18.0352 14.308C18.0209 14.3458 18.0058 14.3828 17.9906 14.4206C17.9789 14.4509 17.9662 14.4803 17.9536 14.5106C17.9377 14.5476 17.9217 14.5846 17.9049 14.6216C17.8914 14.651 17.8788 14.6805 17.8653 14.7091C17.8477 14.746 17.83 14.783 17.8124 14.82C17.7989 14.8486 17.7846 14.8764 17.7703 14.905C17.7518 14.942 17.7316 14.979 17.7123 15.016C17.698 15.0429 17.6837 15.0698 17.6694 15.0967C17.6484 15.1345 17.6265 15.1724 17.6047 15.2102C17.5904 15.2354 17.5761 15.2606 17.5618 15.285C17.5374 15.3262 17.5122 15.3674 17.487 15.4078C17.4744 15.428 17.4617 15.449 17.4491 15.47C17.4138 15.5255 17.3777 15.5802 17.3407 15.6348C17.3373 15.6407 17.3331 15.6457 17.3297 15.6516C17.2885 15.7113 17.2465 15.7702 17.2036 15.829C17.191 15.8459 17.1775 15.8627 17.1649 15.8795C17.1347 15.9207 17.1035 15.9611 17.0724 16.0014C17.0556 16.0233 17.038 16.0443 17.0203 16.0662C16.9925 16.1006 16.964 16.136 16.9354 16.1696C16.916 16.1923 16.8959 16.215 16.8765 16.2377C16.8488 16.2696 16.821 16.3016 16.7924 16.3336C16.7714 16.3571 16.7504 16.3798 16.7294 16.4025C16.7016 16.4328 16.673 16.463 16.6444 16.4933C16.6226 16.516 16.5999 16.5387 16.5772 16.5614C16.5486 16.59 16.52 16.6194 16.4906 16.648C16.467 16.6707 16.4443 16.6926 16.4208 16.7153C16.3913 16.743 16.3619 16.7708 16.3325 16.7977C16.3081 16.8196 16.2837 16.8414 16.2593 16.8633C16.2291 16.8902 16.1988 16.9162 16.1677 16.9423C16.1425 16.9633 16.1181 16.9844 16.092 17.0054C16.0609 17.0306 16.0298 17.0567 15.9978 17.0811C15.9726 17.1012 15.9466 17.1214 15.9205 17.1416C15.8885 17.166 15.8557 17.1904 15.8238 17.2148C15.7977 17.2341 15.7708 17.2534 15.7447 17.2728C15.712 17.2963 15.6783 17.3199 15.6447 17.3426C15.6178 17.3611 15.5917 17.3796 15.5648 17.3972C15.5303 17.4199 15.495 17.4426 15.4605 17.4645C15.4336 17.4813 15.4067 17.4989 15.3798 17.5158C15.3546 17.5317 15.3285 17.546 15.3025 17.562C15.1805 15.9711 14.824 14.324 14.2581 12.7398C15.6598 12.4245 17.0825 12.4144 18.4262 12.7137C18.4262 12.718 18.4262 12.7222 18.4253 12.7255H18.4245ZM13.8646 11.7325C13.6746 11.2826 13.4711 10.8429 13.2525 10.4174C14.6601 9.77755 15.9373 8.91737 16.9968 7.89744C17.8679 8.95605 18.3749 10.2518 18.4531 11.6249C16.9656 11.3264 15.4 11.3634 13.8638 11.7325H13.8646ZM5.71609 10.4368C5.74047 10.3384 5.76738 10.24 5.79681 10.1433C5.80185 10.1257 5.80774 10.1072 5.81278 10.0895C5.84221 9.99448 5.87332 9.90031 5.90696 9.80698C5.90948 9.80025 5.91116 9.79437 5.91369 9.78764C5.91789 9.77587 5.92209 9.76409 5.9263 9.75232C5.96077 9.65983 5.99693 9.56902 6.03477 9.47821C6.04065 9.46476 6.0457 9.45214 6.05158 9.43869C6.05242 9.43617 6.05411 9.43365 6.05495 9.43028C6.09447 9.33863 6.13651 9.24698 6.18107 9.15701C6.1878 9.14272 6.19537 9.12842 6.20209 9.11329C6.2475 9.02248 6.29458 8.93335 6.34419 8.84506C6.35176 8.83076 6.35933 8.81731 6.36774 8.80386C6.41651 8.71809 6.4678 8.63317 6.52077 8.54909C6.52666 8.53984 6.53254 8.53059 6.53843 8.52134C6.54179 8.51545 6.54599 8.50957 6.5502 8.50368C6.60401 8.4196 6.66035 8.33719 6.71753 8.25647C6.72762 8.24218 6.73855 8.22704 6.74864 8.21275C6.80749 8.13119 6.86888 8.05047 6.93194 7.97143C6.94203 7.95882 6.95296 7.9462 6.96305 7.93359C7.02695 7.85455 7.09254 7.77636 7.16065 7.69984C7.16905 7.68975 7.1783 7.6805 7.18671 7.67041C7.2565 7.59221 7.32881 7.51654 7.40281 7.4417C7.41122 7.43329 7.41878 7.42573 7.42719 7.41732C7.4995 7.34585 7.57266 7.27522 7.64833 7.20711C7.65506 7.20122 7.66179 7.1945 7.66851 7.18861C7.67272 7.18525 7.67608 7.18189 7.68028 7.17852C7.75596 7.11126 7.83331 7.04567 7.91151 6.98093C7.92412 6.97084 7.93674 6.9599 7.94935 6.94981C8.02923 6.88591 8.10995 6.82453 8.19319 6.76399C8.20749 6.7539 8.22178 6.74297 8.23692 6.73288C8.32016 6.67318 8.40509 6.61516 8.49169 6.55967C8.50515 6.55126 8.51944 6.54201 8.53289 6.5336C8.62202 6.47726 8.71199 6.42261 8.80448 6.37048C8.81121 6.36711 8.81794 6.36291 8.82466 6.35955C9.90682 7.30128 10.8982 8.50368 11.7255 9.87677C9.7294 10.5789 7.62142 10.7823 5.7102 10.4578C5.71188 10.4502 5.71357 10.4435 5.71525 10.4359L5.71609 10.4368ZM12.3082 5.53889C12.3427 5.54057 12.3772 5.54393 12.4117 5.54562C12.4815 5.54982 12.5504 5.55486 12.6194 5.56075C12.6597 5.56495 12.7001 5.57 12.7404 5.5742C12.8027 5.58093 12.8649 5.5885 12.9271 5.59775C12.97 5.60363 13.012 5.6112 13.0541 5.61793C13.1138 5.62802 13.1726 5.63811 13.2315 5.64904C13.2744 5.65745 13.3173 5.66586 13.3601 5.67511C13.4182 5.68772 13.4762 5.70033 13.5333 5.71463C13.5762 5.72472 13.6183 5.73565 13.6603 5.74658C13.7175 5.76171 13.7747 5.77769 13.8318 5.7945C13.873 5.80627 13.9142 5.81889 13.9554 5.8315C14.0135 5.85 14.0715 5.86934 14.1295 5.88952C14.1682 5.90297 14.2069 5.91559 14.2455 5.92988C14.3078 5.95342 14.37 5.97781 14.4314 6.00303C14.4642 6.01649 14.4969 6.02826 14.5289 6.04255C14.6172 6.08039 14.7046 6.11991 14.7912 6.16111C14.7996 6.16531 14.8089 6.16952 14.8173 6.17372C14.9048 6.21576 14.9914 6.26033 15.0763 6.30657C15.1074 6.32339 15.1377 6.34105 15.1679 6.35871C15.226 6.3915 15.284 6.42429 15.342 6.45961C15.3773 6.48063 15.4109 6.50333 15.4454 6.52519C15.4975 6.55798 15.5488 6.59078 15.6001 6.62525C15.6363 6.64963 15.6716 6.67486 15.7069 6.69924C15.7557 6.73372 15.8044 6.76819 15.8524 6.80435C15.8877 6.83041 15.9222 6.85732 15.9575 6.88423C16.0046 6.92123 16.0517 6.95822 16.0979 6.99606C16.1315 7.02381 16.1652 7.0524 16.1988 7.08098C16.2165 7.09612 16.2341 7.11294 16.2518 7.12807C15.2613 8.08158 14.0597 8.88206 12.7337 9.47485C11.9231 8.0984 10.9545 6.87498 9.89084 5.87859C10.5635 5.64652 11.2681 5.5288 11.9946 5.5288C12.0997 5.5288 12.204 5.53132 12.3082 5.53637V5.53889ZM5.54288 11.5156C6.192 11.6249 6.86047 11.6795 7.53818 11.6795C9.10046 11.6795 10.714 11.392 12.2561 10.8261C12.4596 11.2171 12.6513 11.6198 12.8296 12.0335C12.7396 12.0638 12.6505 12.0941 12.5613 12.1268C10.2995 12.9635 8.42526 14.4526 7.21025 16.3554C6.1323 15.1707 5.52438 13.6177 5.52438 12.0016C5.52438 11.8393 5.53111 11.677 5.54288 11.5156ZM11.7087 18.4651C11.6776 18.4634 11.6465 18.4609 11.6154 18.4592C11.5515 18.4558 11.4884 18.4516 11.4245 18.4457C11.3875 18.4424 11.3514 18.4382 11.3144 18.434C11.2572 18.4281 11.1992 18.4213 11.142 18.4138C11.1033 18.4087 11.0647 18.4029 11.026 18.397C10.9713 18.3886 10.9167 18.3801 10.862 18.3701C10.8225 18.3633 10.783 18.3558 10.7443 18.3474C10.6905 18.3364 10.6375 18.3255 10.5845 18.3137C10.545 18.3053 10.5063 18.2961 10.4677 18.2868C10.4147 18.2742 10.3617 18.2599 10.3096 18.2465C10.2709 18.2364 10.2331 18.2254 10.1952 18.2145C10.1423 18.1994 10.0893 18.1826 10.0363 18.1657C9.99931 18.154 9.96316 18.143 9.92616 18.1304C9.8715 18.1119 9.81685 18.0917 9.76304 18.0724C9.7294 18.0598 9.69493 18.048 9.66129 18.0346C9.60243 18.0119 9.54358 17.9875 9.48472 17.9623C9.45697 17.9505 9.42922 17.9395 9.40148 17.9278C9.31739 17.8908 9.23415 17.8521 9.15175 17.8117C9.15006 17.8117 9.14838 17.8101 9.1467 17.8092C9.06178 17.768 8.97854 17.7243 8.89529 17.6789C8.87091 17.6654 8.84652 17.6503 8.8213 17.6368C8.76412 17.6049 8.70694 17.5721 8.65061 17.5385C8.62034 17.52 8.59007 17.5006 8.5598 17.4813C8.51019 17.4502 8.46058 17.4191 8.41181 17.3863C8.37986 17.3653 8.34791 17.3426 8.3168 17.3207C8.27055 17.2887 8.22514 17.2568 8.17974 17.2232C8.14695 17.1996 8.115 17.1752 8.08304 17.1508C8.05866 17.1323 8.03428 17.113 8.00989 17.0937C9.09373 15.3077 10.8275 13.9094 12.9338 13.13C13.0297 13.0946 13.1272 13.0619 13.2248 13.0291C13.8251 14.6855 14.1816 16.4151 14.2624 18.0623C14.169 18.0976 14.0748 18.1304 13.9807 18.1607C13.9554 18.1691 13.9294 18.1758 13.9042 18.1834C13.8302 18.2061 13.7553 18.2288 13.6805 18.249C13.6435 18.2591 13.6057 18.2675 13.5678 18.2776C13.5039 18.2935 13.44 18.3087 13.3753 18.323C13.3349 18.3322 13.2937 18.3398 13.2525 18.3482C13.1903 18.3608 13.1281 18.3717 13.065 18.3827C13.0238 18.3894 12.9818 18.3961 12.9397 18.402C12.8758 18.4113 12.8119 18.4197 12.7472 18.4272C12.7068 18.4314 12.6673 18.4365 12.6269 18.4407C12.5563 18.4474 12.4857 18.4525 12.415 18.4567C12.3806 18.4592 12.3469 18.4617 12.3125 18.4634C12.2073 18.4684 12.1014 18.4718 11.9955 18.4718C11.8996 18.4718 11.8046 18.4693 11.7096 18.4651H11.7087Z" fill="white"/>
</svg>
