<svg width="24" height="24" viewBox="0 0 24 24" fill="none" xmlns="http://www.w3.org/2000/svg">
<path d="M12.0264 24H11.9736C5.37143 24 0 18.6286 0 12.0264V11.9736C0 5.37143 5.37143 0 11.9736 0H12.0264C18.6286 0 24 5.37143 24 11.9736V12.0264C24 18.6286 18.6286 24 12.0264 24ZM11.9736 0.812375C5.81904 0.812375 0.812375 5.81905 0.812375 11.9736V12.0264C0.812375 18.181 5.81904 23.1876 11.9736 23.1876H12.0264C18.181 23.1876 23.1876 18.181 23.1876 12.0264V11.9736C23.1876 5.81905 18.181 0.812375 12.0264 0.812375H11.9736Z" fill="#808080"/>
<path d="M19.2726 12.3016C19.2743 12.2764 19.2751 12.2504 19.2759 12.2244L19.2897 11.9019L19.2775 11.8987C19.254 10.1943 18.6463 8.57931 17.5504 7.28925L17.5634 7.27545L17.2181 6.92043C15.833 5.49797 13.9784 4.71484 11.9946 4.71484C10.9758 4.71484 9.99612 4.92037 9.0757 5.32412L9.06839 5.31843L8.76944 5.46629C8.37381 5.66207 8.00012 5.89116 7.65161 6.1503C7.41927 6.32334 7.1983 6.50857 6.98871 6.70679C6.91072 6.78071 6.83517 6.85627 6.76043 6.93344C5.73603 7.99197 5.04063 9.34945 4.80098 10.8345L4.72381 11.3154L4.74087 11.3195C4.71975 11.5453 4.70837 11.7736 4.70837 12.001C4.70837 13.932 5.4785 15.7834 6.83436 17.1442L6.82867 17.1547L7.1325 17.4269C8.47048 18.6259 10.1968 19.2872 11.9938 19.2872C12.1213 19.2872 12.248 19.284 12.3739 19.2775C13.2578 19.2328 14.1132 19.0297 14.9207 18.6747C14.9207 18.6747 14.9216 18.6747 14.9224 18.6747L15.2384 18.5358V18.526C17.5902 17.3521 19.1605 14.9532 19.2718 12.3219C19.2718 12.3211 19.2718 12.3203 19.2718 12.3195C19.2718 12.3187 19.2718 12.3171 19.2718 12.3162V12.3049L19.2726 12.3016ZM18.2052 12.6997C18.2019 12.7257 18.1987 12.7517 18.1954 12.7777C18.1897 12.8223 18.1841 12.867 18.1776 12.9109C18.1735 12.9393 18.1686 12.9678 18.1637 12.9962C18.1572 13.0376 18.1499 13.0791 18.1426 13.1205C18.1369 13.1505 18.1312 13.1798 18.1247 13.2099C18.1166 13.2497 18.1093 13.2895 18.1004 13.3285C18.0939 13.3585 18.0866 13.3886 18.0793 13.4186C18.0703 13.4576 18.0606 13.4958 18.0508 13.534C18.0427 13.564 18.0346 13.5949 18.0265 13.625C18.0159 13.6623 18.0053 13.7005 17.9948 13.7379C17.9858 13.768 17.9769 13.7988 17.9671 13.8289C17.9558 13.8662 17.9436 13.9028 17.9322 13.9402C17.9225 13.9702 17.9119 14.0003 17.9013 14.0303C17.8883 14.0669 17.8754 14.1035 17.8624 14.14C17.8518 14.1693 17.8404 14.1993 17.829 14.2286C17.8152 14.2651 17.8006 14.3009 17.786 14.3374C17.7746 14.3667 17.7624 14.3951 17.7502 14.4243C17.7348 14.4601 17.7194 14.4958 17.7031 14.5316C17.6901 14.56 17.6779 14.5885 17.6649 14.6161C17.6479 14.6518 17.6308 14.6876 17.6138 14.7233C17.6008 14.7509 17.587 14.7777 17.5731 14.8053C17.5553 14.8411 17.5358 14.8768 17.5171 14.9126C17.5033 14.9386 17.4895 14.9646 17.4757 14.9906C17.4554 15.0271 17.4342 15.0637 17.4131 15.1002C17.3993 15.1246 17.3855 15.149 17.3717 15.1725C17.3481 15.2123 17.3237 15.2522 17.2994 15.2911C17.2872 15.3106 17.275 15.331 17.2628 15.3513C17.2287 15.4049 17.1938 15.4577 17.158 15.5105C17.1548 15.5162 17.1507 15.5211 17.1475 15.5267C17.1077 15.5844 17.067 15.6413 17.0256 15.6981C17.0134 15.7144 17.0004 15.7306 16.9882 15.7469C16.959 15.7867 16.9289 15.8257 16.8989 15.8647C16.8826 15.8858 16.8656 15.9061 16.8485 15.9272C16.8217 15.9605 16.7941 15.9947 16.7665 16.0272C16.7478 16.0491 16.7283 16.071 16.7096 16.093C16.6828 16.1238 16.656 16.1547 16.6284 16.1856C16.608 16.2083 16.5877 16.2303 16.5674 16.2522C16.5406 16.2814 16.513 16.3107 16.4854 16.3399C16.4643 16.3619 16.4423 16.3838 16.4204 16.4057C16.3928 16.4333 16.3651 16.4618 16.3367 16.4894C16.314 16.5113 16.292 16.5325 16.2693 16.5544C16.2408 16.5812 16.2124 16.608 16.184 16.634C16.1604 16.6551 16.1369 16.6762 16.1133 16.6974C16.0841 16.7234 16.0548 16.7485 16.0248 16.7737C16.0004 16.794 15.9768 16.8143 15.9516 16.8347C15.9216 16.859 15.8915 16.8842 15.8607 16.9078C15.8363 16.9273 15.8111 16.9468 15.7859 16.9663C15.7551 16.9898 15.7234 17.0134 15.6925 17.0369C15.6673 17.0556 15.6413 17.0743 15.6161 17.093C15.5845 17.1158 15.552 17.1385 15.5195 17.1604C15.4935 17.1783 15.4683 17.1962 15.4423 17.2132C15.409 17.2352 15.3749 17.2571 15.3416 17.2782C15.3156 17.2945 15.2896 17.3115 15.2636 17.3278C15.2392 17.3432 15.214 17.357 15.1888 17.3725C15.071 15.8354 14.7266 14.244 14.1799 12.7135C15.5341 12.4088 16.9086 12.3991 18.2068 12.6883C18.2068 12.6924 18.2068 12.6964 18.206 12.6997H18.2052ZM13.7997 11.7403C13.6161 11.3056 13.4195 10.8808 13.2083 10.4697C14.5682 9.8515 15.8022 9.02044 16.8258 8.03503C17.6674 9.05781 18.1572 10.3097 18.2328 11.6363C16.7957 11.3479 15.2831 11.3836 13.7989 11.7403H13.7997ZM5.92694 10.4884C5.9505 10.3933 5.97649 10.2983 6.00492 10.2041C6.0098 10.187 6.01549 10.1691 6.02036 10.1521C6.04879 10.0603 6.07885 9.96929 6.11135 9.87912C6.11378 9.87262 6.11541 9.86693 6.11785 9.86043C6.12191 9.84906 6.12597 9.83767 6.13003 9.8263C6.16334 9.73694 6.19827 9.6492 6.23483 9.56146C6.24051 9.54847 6.24539 9.53628 6.25107 9.52328C6.25189 9.52085 6.25351 9.51842 6.25432 9.51517C6.29251 9.42581 6.33312 9.33808 6.37618 9.25115C6.38268 9.23734 6.38999 9.22353 6.39649 9.20891C6.44036 9.12117 6.48585 9.03506 6.53378 8.94976C6.54109 8.93595 6.5484 8.92296 6.55653 8.90996C6.60365 8.8271 6.6532 8.74504 6.70438 8.66381C6.71007 8.65487 6.71575 8.64593 6.72144 8.63699C6.72469 8.6313 6.72875 8.62562 6.73281 8.61993C6.7848 8.5387 6.83923 8.45909 6.89448 8.3811C6.90422 8.36729 6.91478 8.35267 6.92453 8.33886C6.9814 8.26006 7.0407 8.18206 7.10163 8.1057C7.11138 8.09351 7.12194 8.08133 7.13169 8.06914C7.19343 7.99278 7.25679 7.91723 7.3226 7.8433C7.33072 7.83355 7.33966 7.82461 7.34778 7.81486C7.41521 7.73931 7.48507 7.6662 7.55656 7.59389C7.56468 7.58577 7.572 7.57846 7.58012 7.57033C7.64999 7.50128 7.72066 7.43304 7.79378 7.36724C7.80027 7.36155 7.80677 7.35506 7.81327 7.34937C7.81733 7.34612 7.82058 7.34288 7.82464 7.33963C7.89776 7.27464 7.9725 7.21127 8.04805 7.14872C8.06023 7.13897 8.07242 7.12842 8.0846 7.11867C8.16178 7.05693 8.23977 6.99763 8.32019 6.93914C8.334 6.92939 8.34782 6.91882 8.36244 6.90907C8.44286 6.85139 8.52491 6.79533 8.60859 6.74171C8.62159 6.73359 8.6354 6.72467 8.64839 6.71655C8.73451 6.66212 8.82143 6.6093 8.91079 6.55893C8.91729 6.55568 8.92379 6.55163 8.93029 6.54838C9.97581 7.45824 10.9336 8.61992 11.733 9.94653C9.8044 10.6249 7.76778 10.8215 5.92125 10.5079C5.92287 10.5014 5.9245 10.4941 5.92612 10.4868L5.92694 10.4884ZM12.296 5.75631C12.3293 5.75794 12.3626 5.76117 12.3959 5.7628C12.4633 5.76686 12.5299 5.77175 12.5965 5.77744C12.6355 5.7815 12.6745 5.78637 12.7135 5.79043C12.7736 5.79693 12.8337 5.80424 12.8939 5.81318C12.9353 5.81886 12.9759 5.82617 13.0165 5.83267C13.0742 5.84242 13.1311 5.85218 13.1879 5.86274C13.2294 5.87086 13.2708 5.87897 13.3122 5.88791C13.3683 5.90009 13.4243 5.91228 13.4796 5.92609C13.521 5.93584 13.5616 5.94641 13.6023 5.95697C13.6575 5.97159 13.7127 5.98703 13.768 6.00328C13.8078 6.01465 13.8476 6.02683 13.8874 6.03902C13.9435 6.05689 13.9995 6.07557 14.0556 6.09507C14.0929 6.10807 14.1303 6.12025 14.1677 6.13406C14.2278 6.15681 14.2879 6.18037 14.3472 6.20475C14.3789 6.21774 14.4106 6.22912 14.4414 6.24293C14.5267 6.27948 14.6112 6.31766 14.6949 6.35746C14.703 6.36152 14.712 6.3656 14.7201 6.36966C14.8046 6.41028 14.8882 6.45332 14.9703 6.498C15.0004 6.51425 15.0296 6.53132 15.0588 6.54838C15.1149 6.58006 15.171 6.61174 15.227 6.64586C15.2611 6.66617 15.2936 6.68811 15.3269 6.70923C15.3773 6.74091 15.4269 6.77259 15.4764 6.8059C15.5113 6.82945 15.5455 6.85302 15.5796 6.87739C15.6267 6.9107 15.6738 6.94401 15.7201 6.97894C15.7542 7.00413 15.7875 7.03012 15.8217 7.05611C15.8672 7.09186 15.9127 7.12759 15.9573 7.16496C15.9898 7.19177 16.0223 7.21939 16.0548 7.24701C16.0719 7.26163 16.0889 7.27788 16.106 7.29251C15.149 8.21374 13.9881 8.98713 12.707 9.55986C11.9239 8.23 10.988 7.04799 9.96038 6.08533C10.6103 5.86111 11.2911 5.74737 11.9929 5.74737C12.0945 5.74737 12.1952 5.74981 12.296 5.75469V5.75631ZM5.75959 11.5307C6.38674 11.6363 7.03258 11.6891 7.68735 11.6891C9.19675 11.6891 10.7557 11.4112 12.2456 10.8645C12.4422 11.2423 12.6274 11.6314 12.7996 12.0311C12.7127 12.0603 12.6266 12.0896 12.5405 12.1213C10.3552 12.9296 8.54441 14.3683 7.37053 16.2067C6.32906 15.0621 5.74172 13.5616 5.74172 12.0002C5.74172 11.8434 5.74821 11.6866 5.75959 11.5307ZM11.7167 18.2449C11.6867 18.2433 11.6566 18.2409 11.6266 18.2393C11.5648 18.236 11.5039 18.232 11.4422 18.2263C11.4064 18.223 11.3715 18.2189 11.3357 18.2149C11.2805 18.2092 11.2244 18.2027 11.1692 18.1954C11.1318 18.1905 11.0945 18.1848 11.0571 18.1791C11.0043 18.171 10.9515 18.1629 10.8987 18.1531C10.8605 18.1466 10.8223 18.1393 10.7849 18.1312C10.7329 18.1206 10.6818 18.1101 10.6306 18.0987C10.5924 18.0906 10.555 18.0817 10.5177 18.0719C10.4665 18.0597 10.4153 18.0459 10.3649 18.0329C10.3276 18.0232 10.291 18.0126 10.2545 18.002C10.2033 17.9874 10.1521 17.9712 10.1009 17.9549C10.0652 17.9436 10.0302 17.933 9.9945 17.9208C9.9417 17.9029 9.88889 17.8834 9.8369 17.8648C9.8044 17.8526 9.77109 17.8412 9.7386 17.8282C9.68173 17.8063 9.62487 17.7827 9.568 17.7583C9.54119 17.747 9.51438 17.7364 9.48758 17.725C9.40634 17.6893 9.32591 17.6519 9.2463 17.6129C9.24468 17.6129 9.24305 17.6113 9.24143 17.6105C9.15938 17.5707 9.07895 17.5284 8.99853 17.4846C8.97497 17.4716 8.95141 17.4569 8.92704 17.4439C8.8718 17.4131 8.81655 17.3814 8.76213 17.3489C8.73288 17.331 8.70364 17.3123 8.67439 17.2937C8.62646 17.2636 8.57853 17.2335 8.53141 17.2019C8.50054 17.1815 8.46967 17.1596 8.43961 17.1385C8.39493 17.1076 8.35106 17.0768 8.30719 17.0443C8.27551 17.0215 8.24464 16.9979 8.21377 16.9744C8.19021 16.9565 8.16666 16.9378 8.1431 16.9191C9.19025 15.1937 10.8654 13.8427 12.9004 13.0896C12.993 13.0555 13.0872 13.0238 13.1814 12.9921C13.7615 14.5925 14.1059 16.2636 14.1839 17.855C14.0937 17.8891 14.0028 17.9208 13.9118 17.95C13.8874 17.9582 13.8622 17.9647 13.8378 17.972C13.7664 17.9939 13.6941 18.0159 13.6218 18.0353C13.586 18.0451 13.5495 18.0532 13.5129 18.063C13.4512 18.0784 13.3894 18.093 13.3269 18.1068C13.2879 18.1158 13.2481 18.1231 13.2083 18.1312C13.1481 18.1434 13.088 18.154 13.0271 18.1645C12.9873 18.171 12.9467 18.1775 12.9061 18.1832C12.8443 18.1921 12.7826 18.2003 12.72 18.2068C12.681 18.2116 12.6428 18.2157 12.6038 18.2198C12.5356 18.2263 12.4674 18.2311 12.3991 18.2352C12.3658 18.2376 12.3333 18.2401 12.3 18.2417C12.1985 18.2466 12.0961 18.2498 11.9938 18.2498C11.9011 18.2498 11.8093 18.2474 11.7175 18.2433L11.7167 18.2449Z" fill="#808080"/>
</svg>
