<svg width="24" height="24" viewBox="0 0 24 24" fill="none" xmlns="http://www.w3.org/2000/svg">
<path d="M12.0264 24H11.9736C5.37142 24 0 18.6286 0 12.0264V11.9736C0 5.37144 5.37142 0 11.9736 0H12.0264C18.6286 0 24 5.37144 24 11.9736V12.0264C24 18.6286 18.6286 24 12.0264 24ZM11.9736 0.812375C5.81904 0.812375 0.812375 5.81906 0.812375 11.9736V12.0264C0.812375 18.181 5.81904 23.1876 11.9736 23.1876H12.0264C18.181 23.1876 23.1876 18.181 23.1876 12.0264V11.9736C23.1876 5.81906 18.181 0.812375 12.0264 0.812375H11.9736Z" fill="#808080"/>
<path d="M13.6127 9.31013V11.8358H16.7371L16.2423 15.238H13.6127V23.0766C13.0854 23.1498 12.546 23.1879 11.9985 23.1879C11.3664 23.1879 10.7458 23.1376 10.1414 23.0401V15.238H7.25989V11.8358H10.1414V8.74553C10.1414 6.82832 11.6955 5.27344 13.6135 5.27344V5.27506C13.6192 5.27506 13.624 5.27344 13.6297 5.27344H16.7379V8.21586H14.7069C14.1033 8.21586 13.6135 8.70572 13.6135 9.30931L13.6127 9.31013Z" fill="#808080"/>
</svg>
