<svg width="24" height="24" viewBox="0 0 24 24" fill="none" xmlns="http://www.w3.org/2000/svg">
<path d="M12.0273 0H11.9727C5.36035 0 0 5.36035 0 11.9727V12.0273C0 18.6397 5.36035 24 11.9727 24H12.0273C18.6397 24 24 18.6397 24 12.0273V11.9727C24 5.36035 18.6397 0 12.0273 0Z" fill="url(#paint0_linear_374_807)"/>
<path d="M15.7135 4.87891H8.28723C6.23559 4.87891 4.56653 6.54797 4.56653 8.59961V15.3936C4.56653 17.4452 6.23559 19.1143 8.28723 19.1143H15.7135C17.7651 19.1143 19.4342 17.4452 19.4342 15.3936V8.59961C19.4342 6.54797 17.7651 4.87891 15.7135 4.87891ZM5.87908 8.59961C5.87908 7.27193 6.95955 6.19145 8.28723 6.19145H15.7135C17.0412 6.19145 18.1217 7.27193 18.1217 8.59961V15.3936C18.1217 16.7212 17.0412 17.8017 15.7135 17.8017H8.28723C6.95955 17.8017 5.87908 16.7212 5.87908 15.3936V8.59961Z" fill="white"/>
<path d="M12.0004 15.4608C13.9083 15.4608 15.4613 13.9086 15.4613 11.9999C15.4613 10.0912 13.9091 8.53906 12.0004 8.53906C10.0917 8.53906 8.53955 10.0912 8.53955 11.9999C8.53955 13.9086 10.0917 15.4608 12.0004 15.4608ZM12.0004 9.85245C13.1852 9.85245 14.1488 10.816 14.1488 12.0008C14.1488 13.1855 13.1852 14.1491 12.0004 14.1491C10.8157 14.1491 9.8521 13.1855 9.8521 12.0008C9.8521 10.816 10.8157 9.85245 12.0004 9.85245Z" fill="white"/>
<path d="M15.7815 9.09958C16.2951 9.09958 16.7137 8.68163 16.7137 8.16698C16.7137 7.65232 16.2959 7.23438 15.7815 7.23438C15.267 7.23438 14.8492 7.65232 14.8492 8.16698C14.8492 8.68163 15.267 9.09958 15.7815 9.09958Z" fill="white"/>
<defs>
<linearGradient id="paint0_linear_374_807" x1="3.50629" y1="20.4937" x2="20.4937" y2="3.50713" gradientUnits="userSpaceOnUse">
<stop stop-color="#FAAD4F"/>
<stop offset="0.35" stop-color="#DD2A7B"/>
<stop offset="0.62" stop-color="#9537B0"/>
<stop offset="1" stop-color="#515BD4"/>
</linearGradient>
</defs>
</svg>
