<svg width="24" height="24" viewBox="0 0 24 24" fill="none" xmlns="http://www.w3.org/2000/svg">
<path d="M12.0264 24H11.9736C5.37143 24 0 18.6286 0 12.0264V11.9736C0 5.37142 5.37143 0 11.9736 0H12.0264C18.6286 0 24 5.37142 24 11.9736V12.0264C24 18.6286 18.6286 24 12.0264 24ZM11.9736 0.812375C5.81904 0.812375 0.812375 5.81904 0.812375 11.9736V12.0264C0.812375 18.181 5.81904 23.1876 11.9736 23.1876H12.0264C18.181 23.1876 23.1876 18.181 23.1876 12.0264V11.9736C23.1876 5.81904 18.181 0.812375 12.0264 0.812375H11.9736Z" fill="#808080"/>
<path d="M15.589 5.125H8.4141C6.4319 5.125 4.81934 6.73757 4.81934 8.71976V15.2837C4.81934 17.2659 6.4319 18.8785 8.4141 18.8785H15.589C17.5712 18.8785 19.1838 17.2659 19.1838 15.2837V8.71976C19.1838 6.73757 17.5712 5.125 15.589 5.125ZM6.08745 8.71976C6.08745 7.43702 7.13136 6.39311 8.4141 6.39311H15.589C16.8717 6.39311 17.9156 7.43702 17.9156 8.71976V15.2837C17.9156 16.5665 16.8717 17.6104 15.589 17.6104H8.4141C7.13136 17.6104 6.08745 16.5665 6.08745 15.2837V8.71976Z" fill="#808080"/>
<path d="M12.0001 15.3437C13.8434 15.3437 15.3438 13.8441 15.3438 12C15.3438 10.1559 13.8442 8.65625 12.0001 8.65625C10.156 8.65625 8.65637 10.1559 8.65637 12C8.65637 13.8441 10.156 15.3437 12.0001 15.3437ZM12.0001 9.92517C13.1447 9.92517 14.0757 10.8562 14.0757 12.0008C14.0757 13.1454 13.1447 14.0764 12.0001 14.0764C10.8555 14.0764 9.92449 13.1454 9.92449 12.0008C9.92449 10.8562 10.8555 9.92517 12.0001 9.92517Z" fill="#808080"/>
<path d="M15.6565 9.19637C16.1527 9.19637 16.5572 8.79264 16.5572 8.29546C16.5572 7.79829 16.1535 7.39453 15.6565 7.39453C15.1595 7.39453 14.7559 7.79829 14.7559 8.29546C14.7559 8.79264 15.1595 9.19637 15.6565 9.19637Z" fill="#808080"/>
</svg>
