<svg width="16" height="16" viewBox="0 0 16 16" fill="none" xmlns="http://www.w3.org/2000/svg">
<g clip-path="url(#clip0_364_2562)">
<path d="M8 16C12.4183 16 16 12.4183 16 8C16 3.58172 12.4183 0 8 0C3.58172 0 0 3.58172 0 8C0 12.4183 3.58172 16 8 16Z" fill="#F0F0F0"/>
<path d="M1.6555 3.125C1.02709 3.94259 0.55325 4.88494 0.277344 5.90866H4.43916L1.6555 3.125Z" fill="#0052B4"/>
<path d="M15.7242 5.90862C15.4483 4.88494 14.9745 3.94259 14.3461 3.125L11.5625 5.90862H15.7242Z" fill="#0052B4"/>
<path d="M0.277344 10.0859C0.553281 11.1096 1.02712 12.052 1.6555 12.8695L4.43906 10.0859H0.277344Z" fill="#0052B4"/>
<path d="M12.8696 1.65163C12.052 1.02322 11.1097 0.549375 10.0859 0.273438V4.43522L12.8696 1.65163Z" fill="#0052B4"/>
<path d="M3.13281 14.3461C3.95041 14.9745 4.89275 15.4483 5.91644 15.7242V11.5625L3.13281 14.3461Z" fill="#0052B4"/>
<path d="M5.91641 0.273438C4.89272 0.549375 3.95038 1.02322 3.13281 1.65159L5.91641 4.43519V0.273438Z" fill="#0052B4"/>
<path d="M10.0859 15.7242C11.1096 15.4483 12.052 14.9745 12.8695 14.3461L10.0859 11.5625V15.7242Z" fill="#0052B4"/>
<path d="M11.5625 10.0859L14.3461 12.8696C14.9745 12.052 15.4483 11.1096 15.7242 10.0859H11.5625Z" fill="#0052B4"/>
<path d="M15.9323 6.95653H9.04353H9.0435V0.0677188C8.70191 0.02325 8.35366 0 8 0C7.64628 0 7.29809 0.02325 6.95653 0.0677188V6.95647V6.9565H0.0677188C0.02325 7.29809 0 7.64634 0 8C0 8.35372 0.02325 8.70191 0.0677188 9.04347H6.95647H6.9565V15.9323C7.29809 15.9768 7.64628 16 8 16C8.35366 16 8.70191 15.9768 9.04347 15.9323V9.04353V9.0435H15.9323C15.9768 8.70191 16 8.35372 16 8C16 7.64634 15.9768 7.29809 15.9323 6.95653Z" fill="#D80027"/>
<path d="M10.0859 10.086L13.6558 13.6558C13.82 13.4917 13.9766 13.3201 14.1261 13.1423L11.0698 10.0859H10.0859V10.086Z" fill="#D80027"/>
<path d="M5.91366 10.0859H5.91359L2.34375 13.6558C2.50787 13.82 2.67947 13.9766 2.85734 14.126L5.91366 11.0697V10.0859Z" fill="#D80027"/>
<path d="M5.91122 5.91372V5.91366L2.34134 2.34375C2.17716 2.50788 2.02053 2.67947 1.87109 2.85734L4.92744 5.91369H5.91122V5.91372Z" fill="#D80027"/>
<path d="M10.0859 5.91516L13.6558 2.34522C13.4917 2.18103 13.3201 2.02441 13.1423 1.875L10.0859 4.93134V5.91516Z" fill="#D80027"/>
</g>
<defs>
<clipPath id="clip0_364_2562">
<rect width="16" height="16" fill="white"/>
</clipPath>
</defs>
</svg>
