<svg width="16" height="16" viewBox="0 0 16 16" fill="none" xmlns="http://www.w3.org/2000/svg">
<g clip-path="url(#clip0_364_2610)">
<path d="M8 16C12.4183 16 16 12.4183 16 8C16 3.58172 12.4183 0 8 0C3.58172 0 0 3.58172 0 8C0 12.4183 3.58172 16 8 16Z" fill="#0052B4"/>
<path d="M3.51403 4.86719L3.68672 5.39869H4.24547L3.79344 5.72709L3.96609 6.2585L3.51403 5.93009L3.06194 6.2585L3.23466 5.72709L2.78259 5.39869H3.34131L3.51403 4.86719Z" fill="#F0F0F0"/>
<path d="M5.25313 4.34766L5.42582 4.87913H5.98457L5.53254 5.20753L5.7052 5.73894L5.25313 5.41053L4.80107 5.73894L4.97376 5.20753L4.52173 4.87913H5.08048L5.25313 4.34766Z" fill="#F0F0F0"/>
<path d="M6.99227 3.82422L7.16496 4.35569H7.72371L7.27168 4.68413L7.44433 5.21553L6.99227 4.88709L6.54021 5.21553L6.7129 4.68413L6.26086 4.35569H6.81961L6.99227 3.82422Z" fill="#F0F0F0"/>
<path d="M12.486 4.86719L12.3133 5.39869H11.7545L12.2066 5.72709L12.0339 6.2585L12.486 5.93009L12.938 6.2585L12.7653 5.72709L13.2174 5.39869H12.6586L12.486 4.86719Z" fill="#F0F0F0"/>
<path d="M10.7468 4.34766L10.5741 4.87913H10.0154L10.4674 5.20753L10.2948 5.73894L10.7468 5.41053L11.1989 5.73894L11.0262 5.20753L11.4782 4.87913H10.9195L10.7468 4.34766Z" fill="#F0F0F0"/>
<path d="M9.00768 3.82422L8.835 4.35569H8.27625L8.72828 4.68413L8.55562 5.21553L9.00768 4.88709L9.45975 5.21553L9.28706 4.68413L9.73909 4.35569H9.18034L9.00768 3.82422Z" fill="#F0F0F0"/>
<path d="M9.39128 8.3485L7.99997 6.60938L7.30431 6.95719V7.65284L6.26084 8.3485H5.56519V9.24722C6.58481 9.66009 7.30431 10.6591 7.30431 11.8268H7.99997V11.1311L8.69562 10.4355L9.39128 11.1311L10.0869 10.4355V9.73981L10.7826 8.69634L9.39128 8.3485Z" fill="#FFDA44"/>
</g>
<defs>
<clipPath id="clip0_364_2610">
<rect width="16" height="16" fill="white"/>
</clipPath>
</defs>
</svg>
