<svg width="36" height="36" viewBox="0 0 36 36" fill="none" xmlns="http://www.w3.org/2000/svg">
<path d="M0 16.1594C0 10.3845 0 7.49713 1.15943 5.30735C2.09507 3.54022 3.54022 2.09507 5.30735 1.15943C7.49713 0 10.3845 0 16.1594 0H19.841C25.6158 0 28.5032 0 30.693 1.15943C32.4601 2.09507 33.9053 3.54022 34.8409 5.30735C36.0004 7.49713 36.0004 10.3845 36.0004 16.1594V19.841C36.0004 25.6158 36.0004 28.5032 34.8409 30.693C33.9053 32.4601 32.4601 33.9053 30.693 34.8409C28.5032 36.0004 25.6158 36.0004 19.841 36.0004H16.1594C10.3845 36.0004 7.49713 36.0004 5.30735 34.8409C3.54022 33.9053 2.09507 32.4601 1.15943 30.693C0 28.5032 0 25.6158 0 19.841V16.1594Z" fill="url(#paint0_linear_364_2485)"/>
<path d="M22.8904 16.4436L19.7794 11H16.222L13.111 16.4436L10 21.8871L11.7787 25H24.2213L26 21.8871L22.889 16.4436H22.8904ZM18.0007 20.8493H15.3369L16.6692 18.5186L18.0007 16.1879L19.333 18.5186L20.6652 20.8493H18.0014H18.0007Z" fill="white"/>
<defs>
<linearGradient id="paint0_linear_364_2485" x1="34.2251" y1="36.4448" x2="6.22024" y2="-2.25691" gradientUnits="userSpaceOnUse">
<stop stop-color="#FF5701"/>
<stop offset="0.443664" stop-color="#FF5701"/>
<stop offset="1" stop-color="#FF5701"/>
</linearGradient>
</defs>
</svg>
