<svg width="36" height="36" viewBox="0 0 36 36" fill="none" xmlns="http://www.w3.org/2000/svg">
<path d="M0 16.1594C0 10.3845 0 7.49713 1.15943 5.30735C2.09507 3.54022 3.54022 2.09507 5.30735 1.15943C7.49713 0 10.3845 0 16.1594 0H19.841C25.6158 0 28.5032 0 30.693 1.15943C32.4601 2.09507 33.9053 3.54022 34.8409 5.30735C36.0004 7.49713 36.0004 10.3845 36.0004 16.1594V19.841C36.0004 25.6158 36.0004 28.5032 34.8409 30.693C33.9053 32.4601 32.4601 33.9053 30.693 34.8409C28.5032 36.0004 25.6158 36.0004 19.841 36.0004H16.1594C10.3845 36.0004 7.49713 36.0004 5.30735 34.8409C3.54022 33.9053 2.09507 32.4601 1.15943 30.693C0 28.5032 0 25.6158 0 19.841V16.1594Z" fill="url(#paint0_linear_364_2460)"/>
<rect x="16.5" y="15" width="13.5" height="6" fill="white"/>
<rect x="6.375" y="15.375" width="8.25" height="5.25" stroke="white" stroke-width="0.75"/>
<defs>
<linearGradient id="paint0_linear_364_2460" x1="34.2251" y1="36.4448" x2="6.22024" y2="-2.25691" gradientUnits="userSpaceOnUse">
<stop stop-color="#121212"/>
<stop offset="1"/>
</linearGradient>
</defs>
</svg>
