<svg width="36" height="36" viewBox="0 0 36 36" fill="none" xmlns="http://www.w3.org/2000/svg">
<rect width="36" height="36" rx="9.94296" fill="url(#paint0_linear_364_2480)"/>
<path d="M21.7341 10L23.5989 11.8657L21.0942 14.3706C20.2428 15.2229 19.1155 15.6542 17.9993 15.6527C16.8838 15.6542 15.7557 15.2229 14.9043 14.3706L12.3996 11.8657L14.2645 10L16.7691 12.5049C17.1123 12.8467 17.5495 13.0131 17.9985 13.0146C18.4475 13.0131 18.8847 12.8474 19.2279 12.5049L21.7326 10H21.7341ZM25.9993 21.7344L23.4946 19.2295C23.1529 18.8863 22.9871 18.449 22.9857 18C22.9871 17.5502 23.1529 17.113 23.4946 16.7705L25.9993 14.2656L24.1344 12.3999L21.6298 14.9048C20.7776 15.7562 20.3464 16.8844 20.3479 18C20.3464 19.1156 20.7776 20.2438 21.6298 21.0945L24.1344 23.5994L25.9993 21.7344ZM14.2652 26L16.7699 23.4951C17.1131 23.1526 17.5495 22.9869 17.9993 22.9854C18.4483 22.9869 18.8854 23.1526 19.2287 23.4951L21.7333 26L23.5989 24.1343L21.0942 21.6294C20.2428 20.7771 19.1155 20.3458 17.9993 20.3473C16.8838 20.3458 15.7557 20.7771 14.9043 21.6294L12.3996 24.1343L14.2652 26ZM10 14.2656L12.5047 16.7705C12.8464 17.1137 13.0121 17.551 13.0136 18C13.0121 18.449 12.8464 18.8863 12.5047 19.2295L10 21.7344L11.8656 23.6001L14.3702 21.0952C15.2224 20.2438 15.6536 19.1163 15.6522 18.0007C15.6536 16.8851 15.2224 15.757 14.3702 14.9055L11.8656 12.4006L10 14.2656Z" fill="white"/>
<defs>
<linearGradient id="paint0_linear_364_2480" x1="34.2247" y1="36.4444" x2="6.22018" y2="-2.25688" gradientUnits="userSpaceOnUse">
<stop stop-color="#53B686"/>
<stop offset="0.579482" stop-color="#53B686"/>
<stop offset="1" stop-color="#53B686"/>
</linearGradient>
</defs>
</svg>
