<svg width="84" height="64" viewBox="0 0 84 64" fill="none" xmlns="http://www.w3.org/2000/svg">
<path d="M19.7558 0.291368C15.7313 2.11786 13.7969 3.89023 13.0529 6.43379C12.9379 6.83968 12.9041 7.17115 12.877 8.1994C12.8432 9.39677 12.8499 9.47794 12.9852 9.69442C13.0596 9.81618 13.2017 9.95824 13.2964 9.99883C13.9321 10.2897 15.5622 9.82295 16.6782 9.03147C17.1923 8.66617 18.0175 7.80704 18.3895 7.2388C18.7412 6.70438 19.2688 5.62878 19.519 4.93877C19.8505 3.99847 20.1751 2.63875 20.1954 2.07051C20.2089 1.76609 20.2833 1.20461 20.3577 0.812257C20.5201 0.00724792 20.5201 0.000483513 20.4524 0.000483513C20.4186 0.000483513 20.1075 0.135778 19.7558 0.291368Z" fill="white"/>
<path d="M63.4206 0.115173C63.5491 0.615767 63.752 2.01608 63.6979 1.98225C63.5288 1.88078 63.8738 3.44345 64.2999 4.72875C64.7869 6.17642 65.4362 7.31967 66.2884 8.21262C67.3233 9.30175 68.6084 9.97146 69.8191 10.0594C70.7931 10.1338 70.996 9.91058 71.0637 8.71998C71.2734 5.09405 69.1563 2.50991 64.1849 0.304587C63.8061 0.135468 63.4747 0.000171661 63.4476 0.000171661C63.4138 0.000171661 63.4071 0.0542898 63.4206 0.115173Z" fill="white"/>
<path d="M9.28794 2.65439C8.20573 4.67706 7.59023 6.3209 7.33997 7.84974C7.19116 8.74269 7.25204 10.8262 7.44819 11.6177C7.69845 12.673 8.25984 13.7351 8.83476 14.2695C9.08502 14.4995 9.17972 14.5469 9.41645 14.5469C9.98461 14.5469 10.6475 13.8975 11.175 12.8219C11.5403 12.0777 11.8717 10.9142 11.8176 10.5895C11.7838 10.4339 11.7905 10.4068 11.8514 10.488C11.9055 10.5692 11.9191 10.5557 11.8852 10.4204C11.8717 10.3257 11.8785 9.96035 11.9055 9.60858C12.007 8.44504 11.8311 7.20032 11.3644 5.8203C11.0871 4.98147 10.4784 3.60146 10.0049 2.72203L9.63289 2.0185L9.28794 2.65439Z" fill="white"/>
<path d="M73.8962 2.71527C72.9899 4.41323 72.3338 6.17207 72.0835 7.55209C71.8806 8.68857 71.9279 10.4677 72.185 11.4689C72.5029 12.7069 73.2739 13.9922 73.9436 14.4048C74.0788 14.486 74.2817 14.5469 74.4508 14.5469C74.9175 14.5469 75.3842 14.0395 75.9456 12.9301C76.2568 12.3145 76.5814 11.1645 76.5273 10.8736C76.5003 10.7451 76.5138 10.6977 76.5679 10.7315C76.6153 10.7654 76.622 10.7518 76.595 10.6977C76.5611 10.6504 76.5814 10.3121 76.622 9.94682C76.8588 8.08651 76.1959 5.6106 74.7011 2.81674L74.275 2.0185L73.8962 2.71527Z" fill="white"/>
<path d="M17.8927 9.02544C16.4453 9.5125 15.8636 9.74927 15.0316 10.1822C12.7049 11.4134 11.2845 12.9761 10.7569 14.8837C10.5946 15.4926 10.439 16.8996 10.5202 17.0891C10.5878 17.2514 10.6014 17.292 10.6149 17.4205C10.6284 17.637 10.9869 17.9279 11.298 17.982C11.643 18.0429 12.7455 17.9617 12.9755 17.8602C13.0566 17.8264 13.1243 17.8061 13.1243 17.8197C13.1243 17.8332 12.7793 18.1038 12.3667 18.4217C9.99938 20.2144 8.72779 21.8582 8.21374 23.7794C8.11905 24.1447 8.08523 24.4965 8.08523 25.3015C8.08523 25.8765 8.11229 26.438 8.13934 26.553C8.17316 26.7018 8.17316 26.7289 8.11905 26.6545C8.0717 26.58 8.06494 26.668 8.092 26.9589C8.2408 28.3457 8.97805 28.4945 10.7569 27.4865C11.4198 27.1145 11.9947 26.6477 12.4005 26.1471C12.7658 25.6939 13.361 24.5709 13.618 23.8471C13.8547 23.1841 14.1591 21.7973 14.105 21.5944C14.078 21.4794 14.0915 21.4456 14.1456 21.4862C14.2065 21.52 14.2132 21.4862 14.1862 21.3644C14.1591 21.2765 14.1862 20.8638 14.2403 20.4579C14.2944 20.052 14.3553 19.2335 14.3756 18.6382C14.4229 17.4341 14.4567 17.1094 14.5379 17.1364C14.6529 17.1635 15.4916 16.487 15.9853 15.9661C16.8105 15.0934 17.426 14.072 18.0618 12.5161C18.5421 11.339 18.8126 10.3243 18.6097 10.4528C18.5421 10.4866 18.7855 9.5328 18.9749 8.99838C19.0899 8.6669 19.0899 8.66014 19.029 8.66014C18.9952 8.66014 18.4879 8.82249 17.8927 9.02544Z" fill="white"/>
<path d="M64.8557 8.69524C64.8557 8.73583 65.0857 9.54761 65.3089 10.312C65.3359 10.4 65.3224 10.4203 65.2615 10.3864C65.1939 10.3458 65.1804 10.4135 65.2074 10.6976C65.2886 11.4756 66.2964 13.8094 67.0134 14.8918C67.2027 15.1759 67.5748 15.6427 67.8453 15.9336C68.3594 16.4883 69.3875 17.3136 69.3875 17.1783C69.3875 17.1309 69.401 17.1106 69.4213 17.1309C69.4619 17.1648 69.6174 20.1007 69.6107 20.6351C69.6039 20.8921 69.6242 20.9666 69.658 20.8719C69.6986 20.7839 69.7053 20.8516 69.6783 21.041C69.6377 21.413 69.9218 22.8539 70.2059 23.7063C70.4697 24.4978 71.0649 25.6478 71.4639 26.1484C71.8698 26.649 72.4447 27.1157 73.1075 27.4878C74.1897 28.0966 74.8391 28.2658 75.2652 28.0425C75.556 27.8937 75.7725 27.4202 75.7251 27.0413C75.7048 26.8857 75.7116 26.8046 75.7386 26.8519C75.7725 26.8993 75.7928 26.7978 75.7995 26.6084C75.7995 26.4325 75.8063 25.871 75.8131 25.3704C75.8333 24.1934 75.6304 23.3004 75.1231 22.306C74.5415 21.156 73.1549 19.6474 71.606 18.4771C70.7537 17.8345 70.4358 17.5706 70.8281 17.8209C71.0108 17.9427 72.1606 18.0509 72.5664 17.9833C72.8776 17.9292 73.236 17.6383 73.2496 17.4218C73.2699 17.2324 73.2766 17.1986 73.3307 17.1445C73.4119 17.0633 73.3849 16.1568 73.2766 15.5547C73.0196 14.0597 72.4176 12.9638 71.2407 11.8409C70.0165 10.6706 67.8927 9.56113 65.5389 8.86436C65.2683 8.78318 64.9978 8.70201 64.9504 8.68171C64.8963 8.66142 64.8557 8.66818 64.8557 8.69524Z" fill="white"/>
<path d="M4.72854 11.3323C4.31595 12.7123 4.1942 13.152 4.0454 13.8353C3.74103 15.2559 3.64634 16.2165 3.70045 17.353C3.7275 17.9077 3.74779 18.4421 3.74779 18.5368C3.75456 19.2742 4.05893 20.4715 4.42417 21.2089C4.81647 21.9869 5.52667 22.8663 6.09483 23.2789C6.50742 23.5766 6.83208 23.6239 7.19056 23.4413C7.43406 23.3128 7.77225 22.7919 8.01574 22.183C8.41481 21.1818 8.50274 20.5527 8.49597 18.8074C8.49597 17.955 8.46892 17.6574 8.34717 17.2042C7.94134 15.6956 7.11616 14.1871 5.67547 12.347C4.71501 11.1226 4.77589 11.1835 4.72854 11.3323Z" fill="white"/>
<path d="M78.7368 11.7162C77.7628 12.9744 77.5396 13.2721 77.127 13.9012C75.8621 15.8359 75.3143 17.5068 75.3684 19.3198C75.3751 19.773 75.4157 20.1316 75.4428 20.1113C75.4698 20.091 75.4766 20.1586 75.4495 20.2533C75.3481 20.666 75.7877 22.1745 76.2139 22.8848C76.4979 23.3516 76.7685 23.541 77.1608 23.541C77.5396 23.541 78.1145 23.1013 78.7029 22.3775C79.2102 21.7348 79.5349 21.1463 79.7851 20.4089C80.1233 19.401 80.191 18.7177 80.1842 16.7086C80.1774 15.518 80.1504 15.1933 80.0016 14.4153C79.8257 13.5088 79.2102 11.2291 79.1426 11.2359C79.1223 11.2359 78.9397 11.4523 78.7368 11.7162Z" fill="white"/>
<path d="M1.20772 22.1687C1.24154 22.6828 1.26859 23.3051 1.26859 23.5554C1.26859 23.799 1.28212 23.9816 1.30241 23.9478C1.3227 23.9207 1.34299 24.0966 1.34976 24.3402C1.36329 24.949 1.66089 26.444 1.95174 27.3234C2.6687 29.5287 3.91323 31.0441 5.7124 31.8964C6.9637 32.4917 7.54539 32.1738 7.64685 30.8276C7.6739 30.5232 7.69419 29.752 7.68743 29.1229C7.68743 28.0067 7.68067 27.9526 7.46422 27.3302C6.84872 25.5308 5.5636 24.0425 3.31802 22.5407C2.73633 22.1484 1.2483 21.2419 1.19419 21.2419C1.16714 21.2419 1.18066 21.6613 1.20772 22.1687Z" fill="white"/>
<path d="M81.9561 21.6844C78.3983 23.8288 76.6735 25.7771 76.2609 28.1447C76.1527 28.7874 76.1595 30.3027 76.2745 30.6139C76.3083 30.6951 76.3015 30.7221 76.2542 30.6951C76.146 30.6274 76.3421 31.5542 76.4842 31.7977C76.775 32.2983 77.3364 32.3118 78.2968 31.8383C79.8255 31.0807 80.9415 29.8427 81.6585 28.0906C82.0981 27.015 82.558 25.0803 82.4836 24.6338C82.4633 24.4985 82.4701 24.4241 82.5039 24.4715C82.5377 24.512 82.558 24.4173 82.558 24.2347C82.5648 24.0588 82.5986 23.4906 82.646 22.9697C82.6933 22.4488 82.7407 21.8467 82.761 21.6303C82.7812 21.4205 82.7677 21.2447 82.7407 21.2447C82.7136 21.2447 82.3619 21.4408 81.9561 21.6844Z" fill="white"/>
<path d="M13.2609 25.6889C10.5689 28.5233 9.36492 30.9925 9.51372 33.3872C9.53401 33.7931 9.56783 34.3749 9.58136 34.6725C9.6287 35.5993 9.97366 36.6005 10.3389 36.8372C10.8056 37.1484 11.3399 36.9861 12.2057 36.2825C13.0241 35.606 13.6126 34.8416 13.9913 33.9419C14.2687 33.279 14.4919 32.4334 14.5189 31.8989C14.5325 31.6757 14.5798 31.1278 14.6204 30.6813C14.7015 29.8627 14.6745 28.7195 14.546 27.7386C14.4445 26.9336 14.059 24.965 14.0049 24.965C13.9778 24.965 13.6464 25.2897 13.2609 25.6889Z" fill="white"/>
<path d="M69.8232 25.2661C69.3903 27.1535 69.2551 28.3982 69.2821 30.1503C69.2956 30.935 69.3159 31.5709 69.3362 31.5573C69.3565 31.5438 69.3768 31.7062 69.3768 31.9159C69.3903 32.3894 69.6609 33.4312 69.9382 34.04C70.4523 35.1833 71.5142 36.3333 72.5152 36.8406C73.1239 37.145 73.5974 36.9827 73.895 36.3739C74.2603 35.623 74.3752 34.7841 74.3685 32.9103C74.3685 32.0241 74.3414 31.8144 74.1859 31.2394C73.7124 29.5144 72.5626 27.6879 70.7634 25.8276L69.8976 24.9346L69.8232 25.2661Z" fill="white"/>
<path d="M0 30.8281C0 30.8416 0.121748 31.0987 0.277315 31.3963C0.595213 32.039 0.69667 32.2893 0.615505 32.2419C0.514048 32.1743 0.493757 32.5057 0.574922 32.8305C0.7846 33.649 2.36733 35.9964 3.3616 36.9434C4.20031 37.7485 5.26223 38.4452 5.95213 38.6414C6.19563 38.7091 6.28356 38.7496 6.15505 38.7293C6.02654 38.7091 5.62747 38.6482 5.27576 38.5941C4.48439 38.4791 2.88814 38.3573 2.04943 38.3573H1.4204L1.77888 38.912C2.26587 39.6697 2.26587 39.6697 2.17794 39.6155C2.05619 39.5411 2.00208 39.8929 2.09001 40.1838C2.25911 40.752 3.85536 42.7273 4.82258 43.5797C5.46514 44.1412 6.32414 44.7162 6.87877 44.9665C7.54163 45.2574 8.19095 45.4603 8.51561 45.4671L8.82675 45.4738L8.52237 45.528C8.35328 45.5618 7.68366 45.67 7.03434 45.7715C6.38502 45.873 5.83715 45.9677 5.81686 45.9812C5.80333 45.9947 5.81686 46.0286 5.85068 46.0556C6.0333 46.1841 6.78408 47.0297 6.68262 46.9959C6.56088 46.9553 6.49324 47.0636 6.49324 47.3139C6.49324 47.5709 6.85172 48.0445 7.44693 48.5789C9.80749 50.6963 11.7149 51.623 13.7981 51.6433C14.2242 51.6433 14.6842 51.6298 14.8127 51.596C14.9412 51.5689 14.576 51.711 14.001 51.9071C12.4048 52.4619 11.9043 52.6513 11.9043 52.6986C11.9043 52.7189 12.1004 52.888 12.3439 53.0639C12.7159 53.3345 13.0338 53.6322 12.7971 53.4833C12.7092 53.4292 12.5806 53.6457 12.5806 53.8486C12.5806 54.5184 15.8678 56.2907 17.924 56.7304C18.7695 56.9131 20.1358 56.8996 20.9272 56.7034C21.6915 56.514 22.6925 56.0404 23.0172 55.7225C23.281 55.4519 23.3959 55.1001 23.2742 54.8837C23.2201 54.7686 23.2471 54.7213 23.4703 54.5522C23.6192 54.4439 23.7409 54.3357 23.7409 54.3086C23.7409 54.2816 23.565 54.0381 23.3486 53.7675C22.2529 52.3942 20.8595 51.5486 19.2362 51.2713C18.6342 51.1698 16.7471 51.2307 16.0302 51.3727C15.1441 51.5486 15.0359 51.5486 15.6311 51.393C15.9761 51.3051 16.321 51.163 16.4563 51.0548C16.7133 50.8586 16.8689 50.4865 16.8013 50.2227C16.7674 50.1009 16.808 50.0468 16.9703 49.9589C17.0853 49.9048 17.18 49.8304 17.18 49.8033C17.18 49.7762 17.0718 49.5462 16.9433 49.2959C15.8408 47.1515 14.0754 45.9068 11.6608 45.5888C10.8965 45.4874 10.8018 45.4603 11.0453 45.3859C11.3902 45.2912 11.6134 44.9935 11.6472 44.5877C11.654 44.4524 11.7081 44.3644 11.7825 44.3374C11.9381 44.29 11.9381 44.2968 11.7014 43.5662C10.9709 41.3406 9.6384 39.9538 7.37253 39.0879C7.09521 38.9864 6.97347 38.9188 7.10198 38.9458C7.23049 38.9796 7.65661 38.9999 8.04891 38.9999C8.59678 38.9999 8.81322 38.9729 9.00937 38.8782C9.27316 38.7429 9.50312 38.364 9.44901 38.1543C9.42872 38.0732 9.46254 38.019 9.54371 37.9988C9.69927 37.9582 9.69927 37.8567 9.57076 37.1599C9.15817 34.9952 7.88658 33.3175 5.89126 32.3028C4.82935 31.7684 3.22633 31.3084 1.38658 31.0175C0.791363 30.9296 0.236733 30.8416 0.155567 30.8213C0.0676379 30.8078 0 30.8078 0 30.8281Z" fill="white"/>
<path d="M83.5472 30.8551C81.978 31.0987 81.2881 31.2272 80.5373 31.4234C77.2636 32.2487 75.39 33.764 74.5851 36.2399C74.4093 36.7743 74.1996 37.877 74.2605 37.9649C74.274 37.9988 74.3552 38.019 74.4363 38.0258C74.5175 38.0258 74.5446 38.0461 74.504 38.0664C74.389 38.107 74.3958 38.3235 74.5175 38.5535C74.6866 38.8849 75.0248 38.9999 75.8703 38.9999C76.2829 38.9999 76.709 38.9729 76.8172 38.9458C76.9322 38.912 76.7293 39.0067 76.3708 39.1555C75.4509 39.5276 74.6798 40.0079 74.0643 40.5829C73.1986 41.3947 72.5966 42.362 72.2246 43.5526C72.0081 44.2359 72.0081 44.2968 72.2043 44.3779C72.2855 44.4118 72.3193 44.4388 72.2787 44.4388C72.2246 44.4456 72.2178 44.52 72.2449 44.6688C72.3463 45.1153 72.5222 45.3115 72.8807 45.3927C73.0904 45.44 73.0904 45.44 72.928 45.4738C72.8333 45.4941 72.441 45.5618 72.0487 45.6227C69.8708 45.9677 68.3084 47.0162 67.2194 48.863C67.0503 49.1471 66.8677 49.4854 66.8136 49.6139C66.7189 49.8371 66.7189 49.8371 66.9691 49.9792C67.1044 50.0604 67.1788 50.128 67.145 50.128C67.0435 50.128 67.03 50.3918 67.1179 50.6557C67.2126 50.9398 67.632 51.251 67.9972 51.3118C68.146 51.3389 68.261 51.3727 68.2407 51.3863C68.2272 51.3998 67.8687 51.366 67.4426 51.3051C66.401 51.1563 64.7709 51.2036 64.1013 51.393C62.6403 51.8124 61.4566 52.6377 60.415 53.9636L60.1377 54.3154L60.4082 54.5319C60.6382 54.7145 60.672 54.7686 60.6112 54.8769C60.4962 55.1001 60.6044 55.4519 60.8682 55.7225C61.1928 56.0404 62.1939 56.514 62.9582 56.7034C63.7496 56.8996 65.1158 56.9131 65.9613 56.7304C67.9905 56.2975 71.3047 54.5116 71.3047 53.8554C71.3047 53.6592 71.183 53.4292 71.095 53.4766C71.0612 53.5036 71.0342 53.5036 71.0342 53.4901C71.0342 53.4698 71.2641 53.2939 71.5414 53.091C71.8188 52.8948 72.0487 52.7122 72.0487 52.6919C72.0487 52.6716 71.9067 52.6039 71.7308 52.543C69.3703 51.7313 68.8765 51.5554 69.1065 51.596C69.5055 51.6771 70.7366 51.6501 71.2033 51.5554C72.6101 51.2645 74.159 50.4865 75.505 49.3771C77.1351 48.0309 77.6289 47.395 77.2974 47.0636C77.2095 46.9824 77.2568 46.9012 77.6424 46.4818C77.8859 46.2112 78.0753 45.988 78.0617 45.9744C78.0347 45.9609 77.338 45.8391 75.6335 45.5685C75.1601 45.4874 75.1127 45.4738 75.3697 45.4671C75.6944 45.4603 76.3437 45.2574 76.9998 44.9665C77.94 44.5471 79.1507 43.6 80.0503 42.5853C80.7537 41.7938 81.5721 40.6979 81.7345 40.3326C81.8765 40.0147 81.8765 39.6629 81.7345 39.6967C81.6263 39.717 81.6668 39.6358 82.1268 38.912L82.465 38.3911L81.978 38.3708C81.3625 38.3438 79.5295 38.4655 78.6772 38.5941C77.4665 38.7699 77.4665 38.7699 77.8926 38.6549C78.5217 38.4791 79.543 37.8432 80.3614 37.099C81.6668 35.922 83.5201 33.0063 83.3578 32.3907C83.3443 32.3231 83.3037 32.2893 83.2699 32.3096C83.1887 32.3569 83.2901 32.1066 83.6148 31.4572C83.7704 31.1528 83.8854 30.8822 83.8718 30.8551C83.8583 30.8281 83.7163 30.8281 83.5472 30.8551ZM77.2366 38.8714C77.2163 38.8917 77.1554 38.8985 77.108 38.8782C77.0539 38.8579 77.0742 38.8376 77.1486 38.8376C77.223 38.8308 77.2636 38.8511 77.2366 38.8714ZM68.5113 51.4539C68.491 51.4742 68.4301 51.481 68.3828 51.4607C68.3286 51.4404 68.3489 51.4201 68.4233 51.4201C68.4977 51.4133 68.5383 51.4336 68.5113 51.4539ZM68.7818 51.5216C68.7615 51.5418 68.7007 51.5486 68.6533 51.5283C68.5992 51.508 68.6195 51.4877 68.6939 51.4877C68.7683 51.481 68.8089 51.5013 68.7818 51.5216Z" fill="white"/>
<path d="M67.9189 34.0137C67.6077 34.9608 67.2966 36.1716 67.1207 37.1052C66.999 37.7411 66.9314 40.6161 67.0396 40.5485C67.0666 40.5282 67.0734 40.6026 67.0531 40.7176C66.999 40.9882 67.1951 41.9285 67.4454 42.5711C67.9527 43.8903 69.4542 45.5273 70.1509 45.5273C70.5365 45.5273 70.9896 45.0538 71.3481 44.2759C71.7066 43.5182 71.8013 42.7605 71.7878 40.8258C71.781 40.014 71.7539 39.7029 71.6322 39.2496C71.1858 37.5449 70.2388 35.7658 68.7711 33.8716C68.5073 33.5266 68.2706 33.229 68.2503 33.2019C68.2232 33.1749 68.0744 33.5401 67.9189 34.0137Z" fill="white"/>
<path d="M14.9255 34.1494C12.8625 36.9095 11.9291 39.2704 12.0712 41.3675C12.0915 41.7395 12.1253 42.3145 12.1388 42.6528C12.1726 43.4172 12.3417 44.0328 12.7002 44.6348C12.9978 45.1354 13.2954 45.4331 13.566 45.5007C14.2559 45.6766 15.8589 44.026 16.4203 42.5716C16.6503 41.983 16.8735 40.9819 16.8126 40.8263C16.7923 40.7654 16.8058 40.5624 16.8464 40.3663C16.8802 40.1768 16.9141 39.5748 16.9141 39.0336C16.9208 37.9851 16.8126 37.1124 16.5285 35.9556C16.3053 35.0288 15.7372 33.2159 15.6763 33.2159C15.6425 33.2159 15.3043 33.6353 14.9255 34.1494Z" fill="white"/>
<path d="M18.7334 39.3812C17.4551 41.9856 17.0154 43.6565 17.056 45.7469C17.0695 46.3286 17.0966 46.7683 17.1237 46.7278C17.1575 46.6804 17.1575 46.7413 17.1372 46.8563C17.0087 47.5192 17.658 49.251 18.3614 50.1507C18.8755 50.8002 19.3151 50.9625 19.7818 50.6716C20.2553 50.3807 21.1008 49.0481 21.3984 48.1348C21.5336 47.7087 21.7095 46.8022 21.6689 46.7345C21.6486 46.7075 21.6689 46.3692 21.7095 45.9836C21.8854 44.2451 21.3645 42.2427 20.0862 39.7465C19.8021 39.185 19.4977 38.6303 19.4233 38.5018L19.2813 38.265L18.7334 39.3812Z" fill="white"/>
<path d="M64.3418 38.7695C63.503 40.251 62.7861 41.9219 62.475 43.1125C62.2112 44.134 62.1571 44.6955 62.1976 45.9943C62.245 47.5976 62.4614 48.4094 63.1175 49.4917C64.0374 51.0138 64.6935 51.1897 65.5187 50.1479C66.1545 49.3294 66.6753 48.0305 66.7429 47.0835C66.7564 46.8399 66.797 46.3326 66.8308 45.9537C67.0067 44.0055 66.4521 41.8949 65.0317 39.074L64.6258 38.2622L64.3418 38.7695Z" fill="white"/>
<path d="M23.2909 43.1752C23.2773 43.2226 23.1962 43.7029 23.1082 44.2441C22.9797 45.0761 22.9594 45.5159 22.9527 47.1529C22.9391 49.2433 23 49.8656 23.2909 50.9074C23.7373 52.4768 24.6707 53.8162 25.9152 54.6416C26.7269 55.1827 27.1936 55.1151 27.5723 54.4115C27.8158 53.9448 28.0729 53.0248 28.0999 52.4971C28.1067 52.2942 28.1337 51.7598 28.1608 51.3133C28.2217 50.4 28.154 49.8724 27.8835 49.02C27.4371 47.6129 26.5442 46.2735 24.9818 44.6567C23.9875 43.6285 23.3314 43.0535 23.2909 43.1752Z" fill="white"/>
<path d="M59.4869 44.0867C57.5322 46.0079 56.5446 47.415 56.0103 49.0385C55.7939 49.715 55.6383 50.8041 55.7059 51.2709C55.7262 51.44 55.76 51.8865 55.7736 52.2586C55.8209 53.3951 56.22 54.6059 56.6461 54.8765C57.1669 55.2012 57.9718 54.8021 58.9931 53.7265C59.6289 53.0636 60.0483 52.3803 60.3797 51.4874C60.63 50.8177 60.8329 49.9044 60.7788 49.715C60.7517 49.6406 60.7652 49.5865 60.8126 49.5865C60.8667 49.5865 60.8802 49.5324 60.8599 49.4444C60.8396 49.37 60.8667 48.9235 60.9276 48.45C60.9952 47.8479 61.0155 47.2865 60.9885 46.5762C60.9411 45.2841 60.6638 43.0923 60.5488 43.0923C60.5285 43.0923 60.0483 43.5388 59.4869 44.0867Z" fill="white"/>
<path d="M29.1084 49.3967C29.4601 50.2693 29.5751 50.6076 29.5074 50.567C29.4669 50.5399 29.4398 50.6482 29.4398 50.8511C29.4398 51.3788 30.2176 52.9685 31.1443 54.3282C32.5985 56.4726 34.7223 57.7715 36.7717 57.7715C37.6105 57.7715 37.8945 57.5888 37.9892 57.0138C37.996 56.9394 38.0433 56.8582 38.0907 56.8312C38.1583 56.7838 38.1651 56.6485 38.1042 56.1682C37.6578 52.4814 35.3919 50.5129 30.2312 49.3223C29.5751 49.1667 29.0204 49.0449 29.0001 49.0449C28.9799 49.0449 29.034 49.2073 29.1084 49.3967Z" fill="white"/>
<path d="M53.8227 49.2817C49.7035 50.2152 47.4647 51.6088 46.4096 53.902C46.0105 54.7612 45.6656 56.4524 45.8144 56.8041C45.8482 56.8718 45.882 57.0003 45.8955 57.0882C45.9835 57.5956 46.2946 57.7715 47.1062 57.7715C49.2436 57.7715 51.3336 56.4456 52.8825 54.0982C53.6265 52.982 54.3841 51.4261 54.4247 50.9526C54.445 50.682 54.4382 50.594 54.3773 50.6279C54.3029 50.6752 54.357 50.5264 54.7358 49.5929C54.9252 49.1329 54.9455 49.0449 54.8643 49.0517C54.8305 49.0517 54.3638 49.1599 53.8227 49.2817Z" fill="white"/>
<path d="M25.9072 55.3429C24.6018 55.5121 22.9649 56.1818 21.3957 57.1965C20.6652 57.6633 19.2719 58.6712 19.2651 58.7253C19.2651 58.7524 19.4545 58.8336 19.6913 58.9215C20.1377 59.0839 20.3135 59.1921 20.1309 59.1921C20.0633 59.1921 20.0024 59.2733 19.9753 59.395C19.8806 59.8348 20.2797 60.1053 21.504 60.4368C25.3728 61.4854 28.146 61.0659 30.094 59.1244C30.6012 58.6239 30.7771 58.2383 30.6418 57.9474C30.581 57.8053 30.6012 57.7377 30.838 57.4265C30.98 57.2303 31.1018 57.0544 31.1018 57.0341C31.1018 57.0138 30.9327 56.8718 30.7298 56.723C29.1809 55.5932 27.5575 55.1265 25.9072 55.3429Z" fill="white"/>
<path d="M56.2357 55.3632C55.1873 55.5662 54.0916 56.0465 53.219 56.6891L52.7659 57.0274L53.0364 57.3927C53.2867 57.7241 53.307 57.7715 53.2326 57.9338C53.0905 58.245 53.2596 58.6171 53.7737 59.1244C55.7216 61.0659 58.4948 61.4854 62.3637 60.4368C63.5812 60.1053 63.987 59.8348 63.8923 59.4018C63.872 59.2936 63.7976 59.1921 63.7367 59.1786C63.6759 59.165 63.8585 59.0568 64.1493 58.9418L64.6837 58.7389L63.8314 58.1165C61.7752 56.6079 60.1113 55.7691 58.5557 55.4444C57.7914 55.2888 56.8174 55.255 56.2357 55.3632Z" fill="white"/>
<path d="M41.4277 56.8995C41.1031 56.9942 40.6161 57.461 40.4876 57.806C40.3996 58.036 40.3793 58.2118 40.4132 58.5636C40.4402 58.8139 40.4538 59.1319 40.4538 59.2604C40.4402 59.903 40.8731 60.566 41.4345 60.7486C42.3679 61.0598 43.3622 60.3969 43.4095 59.4295C43.4163 59.2401 43.4636 58.9492 43.5042 58.7733C43.5719 58.523 43.5719 58.3674 43.5042 58.0901C43.2945 57.1498 42.3747 56.6221 41.4277 56.8995Z" fill="white"/>
<path d="M34.1782 58.2179C32.3114 58.5291 30.2078 59.7535 27.854 61.8777L27.4888 62.2159L27.9893 62.3715C28.2666 62.4594 28.4425 62.5406 28.3816 62.5541C28.226 62.5947 28.1516 62.8788 28.2463 63.0818C28.3545 63.3186 28.7536 63.4944 29.5179 63.65C33.3597 64.428 36.0653 63.9003 37.9726 62.0062C38.4393 61.5394 38.7167 61.1268 38.7437 60.8494C38.7775 60.5653 38.7437 60.4029 38.6625 60.4503C38.5814 60.5044 38.5814 60.4976 38.9263 59.9565C39.0481 59.7603 39.1495 59.5776 39.1495 59.537C39.1495 59.4356 38.8181 59.2259 38.1553 58.8944C36.7552 58.1908 35.5444 57.9811 34.1782 58.2179Z" fill="white"/>
<path d="M47.6725 58.2192C47.3884 58.2665 46.9353 58.3883 46.658 58.4898C46.1439 58.6724 45.1293 59.173 44.852 59.3895L44.6897 59.5113L44.967 59.9577C45.1158 60.208 45.2105 60.411 45.1767 60.411C45.0549 60.411 45.1023 60.9522 45.2511 61.2295C45.3255 61.3783 45.6096 61.7233 45.8734 61.9939C47.7605 63.9016 50.4863 64.436 54.3349 63.6513C55.0992 63.4957 55.4982 63.3198 55.6065 63.0831C55.7011 62.8801 55.6267 62.596 55.4712 62.5622C55.4103 62.5419 55.5929 62.4607 55.8838 62.366L56.4113 62.2036L55.7823 61.6557C53.3338 59.5383 51.5752 58.5439 49.6814 58.2124C48.9644 58.0907 48.3692 58.0907 47.6725 58.2192Z" fill="white"/>
<rect x="41" y="24" width="18" height="8" fill="white"/>
<rect x="27.5" y="24.5" width="11" height="7" stroke="white"/>
</svg>
