<svg width="17" height="16" viewBox="0 0 17 16" fill="none" xmlns="http://www.w3.org/2000/svg">
<path d="M8.11546 5.41029C9.61005 5.41029 10.8208 4.19964 10.8208 2.70514C10.8208 1.21064 9.60923 0 8.11546 0C6.6217 0 5.41016 1.21064 5.41016 2.70514C5.41016 4.19964 6.6217 5.41029 8.11546 5.41029Z" fill="#0071E3"/>
<path d="M2.70531 5.2948C1.21154 5.2948 0 6.50625 0 7.99994C0 9.49362 1.21154 10.7051 2.70531 10.7051C4.19908 10.7051 5.41062 9.49362 5.41062 7.99994C5.41062 6.50625 4.19989 5.2948 2.70531 5.2948Z" fill="#0071E3"/>
<path d="M13.5256 5.2948C12.031 5.2948 10.8203 6.50625 10.8203 7.99994C10.8203 9.49362 12.031 10.7051 13.5256 10.7051C15.0202 10.7051 16.2309 9.49362 16.2309 7.99994C16.2309 6.50625 15.0194 5.2948 13.5256 5.2948Z" fill="#0071E3"/>
<path d="M8.11546 10.5897C6.6217 10.5897 5.41016 11.8004 5.41016 13.2949C5.41016 14.7894 6.6217 16 8.11546 16C9.60923 16 10.8208 14.7894 10.8208 13.2949C10.8208 11.8004 9.60923 10.5897 8.11546 10.5897Z" fill="#0071E3"/>
</svg>
