<svg width="16" height="16" viewBox="0 0 16 16" fill="none" xmlns="http://www.w3.org/2000/svg">
<path d="M11.7341 0L13.5989 1.86573L11.0942 4.37063C10.2428 5.22286 9.1155 5.65415 7.99927 5.65267C6.88378 5.65415 5.75571 5.22286 4.9043 4.37063L2.39963 1.86573L4.26446 0L6.76912 2.5049C7.11234 2.84668 7.54952 3.01313 7.99853 3.01461C8.44753 3.01313 8.8847 2.84742 9.22792 2.5049L11.7326 0H11.7341ZM15.9993 11.7344L13.4946 9.22952C13.1529 8.88626 12.9871 8.44905 12.9857 8C12.9871 7.55021 13.1529 7.113 13.4946 6.77048L15.9993 4.26558L14.1344 2.39985L11.6298 4.90475C10.7776 5.75624 10.3464 6.88441 10.3479 8C10.3464 9.11559 10.7776 10.2438 11.6298 11.0945L14.1344 13.5994L15.9993 11.7344ZM4.2652 16L6.76986 13.4951C7.11308 13.1526 7.54952 12.9869 7.99927 12.9854C8.44827 12.9869 8.88544 13.1526 9.22866 13.4951L11.7333 16L13.5989 14.1343L11.0942 11.6294C10.2428 10.7771 9.1155 10.3458 7.99927 10.3473C6.88378 10.3458 5.75571 10.7771 4.9043 11.6294L2.39963 14.1343L4.2652 16ZM0 4.26558L2.50468 6.77048C2.84642 7.11374 3.01211 7.55095 3.01359 8C3.01211 8.44905 2.84642 8.88626 2.50468 9.22952L0 11.7344L1.86555 13.6001L4.37023 11.0952C5.22238 10.2438 5.65364 9.11633 5.65216 8.00074C5.65364 6.88515 5.22238 5.75698 4.37023 4.90549L1.86555 2.40059L0 4.26558Z" fill="#00CE93"/>
</svg>
